STARTFONT 2.1
COMMENT
COMMENT Converted from OpenType font "Q:\font stuff\winfont\neuropolitical.ttf" by "otf2bdf 3.0".
COMMENT
FONT -FreeType-Neuropolitical Rg-Medium-R-Normal--28-280-72-72-P-183-ISO10646-1
SIZE 28 72 72
FONTBOUNDINGBOX 44 35 -4 -7
STARTPROPERTIES 19
FOUNDRY "FreeType"
FAMILY_NAME "Neuropolitical Rg"
WEIGHT_NAME "Medium"
SLANT "R"
SETWIDTH_NAME "Normal"
ADD_STYLE_NAME ""
PIXEL_SIZE 21
POINT_SIZE 280
RESOLUTION_X 72
RESOLUTION_Y 72
SPACING "P"
AVERAGE_WIDTH 183
CHARSET_REGISTRY "ISO10646"
CHARSET_ENCODING "1"
FONT_ASCENT 27
FONT_DESCENT 6
COPYRIGHT "(c) 1999-2011 Typodermic Fonts. www.typodermic.com/license.html - Design: Ray Larabie Languages & kerning: Chikako Larabie"
_OTF_FONTFILE "Q:\font stuff\winfont\neuropolitical.ttf"
_OTF_PSNAME "NeuropoliticalRg-Regular"
ENDPROPERTIES
CHARS 385
STARTCHAR 0017
ENCODING 23
SWIDTH 392 0
DWIDTH 11 0
BBX 0 0 0 0
BITMAP
ENDCHAR
STARTCHAR 0020
ENCODING 32
SWIDTH 392 0
DWIDTH 11 0
BBX 0 0 0 0
BITMAP
ENDCHAR
STARTCHAR 0021
ENCODING 33
SWIDTH 285 0
DWIDTH 8 0
BBX 4 19 2 0
BITMAP
F0
F0
F0
F0
F0
F0
F0
F0
F0
F0
F0
F0
F0
00
00
F0
F0
F0
F0
ENDCHAR
STARTCHAR 0022
ENCODING 34
SWIDTH 428 0
DWIDTH 12 0
BBX 10 7 1 13
BITMAP
F3C0
F3C0
F3C0
F3C0
F3C0
71C0
71C0
ENDCHAR
STARTCHAR 0023
ENCODING 35
SWIDTH 642 0
DWIDTH 18 0
BBX 17 19 1 0
BITMAP
060C00
0E1C00
0E1C00
0E1C00
7FFF80
7FFF80
7FFF00
0C1800
1C3800
1C3800
1C3800
1C3800
FFFF00
FFFF00
FFFE00
183000
387000
387000
387000
ENDCHAR
STARTCHAR 0024
ENCODING 36
SWIDTH 821 0
DWIDTH 23 0
BBX 21 23 1 -2
BITMAP
007000
007000
3FF000
7FF000
FFF000
FFF000
F07000
F07000
F07000
F07000
FFFFE0
7FFFF0
3FFFF8
007078
007078
007078
007078
FFFFF8
FFFFF8
FFFFF0
FFFFE0
007000
007000
ENDCHAR
STARTCHAR 0025
ENCODING 37
SWIDTH 1035 0
DWIDTH 29 0
BBX 28 21 1 -1
BITMAP
7FE00000
FFF03800
FFF07800
E0707000
E070E000
E071E000
E071C000
E0738000
FFF70000
FFFF0000
7FEE7FE0
001CFFF0
003CFFF0
0038E070
0070E070
00F0E070
00E0E070
01C0E070
0380FFF0
0780FFF0
00007FE0
ENDCHAR
STARTCHAR 0026
ENCODING 38
SWIDTH 928 0
DWIDTH 26 0
BBX 24 19 1 0
BITMAP
0FFF00
3FFF80
3FFFC0
3C03C0
3C03C0
3C03C0
3C07C0
1F7F80
0FFF00
3FF000
78F03C
F0783C
F01E3C
F00F3C
F003F8
FFFFF8
FFFFF8
7FFFFE
1FFF9F
ENDCHAR
STARTCHAR 0027
ENCODING 39
SWIDTH 214 0
DWIDTH 6 0
BBX 4 7 1 13
BITMAP
F0
F0
F0
F0
F0
70
70
ENDCHAR
STARTCHAR 0028
ENCODING 40
SWIDTH 357 0
DWIDTH 10 0
BBX 7 31 3 -7
BITMAP
1E
3E
7E
F0
E0
E0
E0
E0
E0
E0
E0
E0
E0
E0
E0
E0
E0
E0
E0
E0
E0
E0
E0
E0
E0
E0
E0
F0
7E
3E
1E
ENDCHAR
STARTCHAR 0029
ENCODING 41
SWIDTH 357 0
DWIDTH 10 0
BBX 7 31 0 -7
BITMAP
F0
F8
FC
1E
0E
0E
0E
0E
0E
0E
0E
0E
0E
0E
0E
0E
0E
0E
0E
0E
0E
0E
0E
0E
0E
0E
0E
1E
FC
F8
F0
ENDCHAR
STARTCHAR 002A
ENCODING 42
SWIDTH 571 0
DWIDTH 16 0
BBX 14 13 1 8
BITMAP
0300
0300
0300
0300
E338
FFFC
3FF0
0780
0F80
1CC0
1CE0
3870
1020
ENDCHAR
STARTCHAR 002B
ENCODING 43
SWIDTH 607 0
DWIDTH 17 0
BBX 13 13 2 3
BITMAP
0700
0700
0700
0700
0700
FFF8
FFF8
FFF8
0700
0700
0700
0700
0700
ENDCHAR
STARTCHAR 002C
ENCODING 44
SWIDTH 250 0
DWIDTH 7 0
BBX 5 7 1 -2
BITMAP
78
78
70
F0
F0
F0
E0
ENDCHAR
STARTCHAR 002D
ENCODING 45
SWIDTH 392 0
DWIDTH 11 0
BBX 9 4 1 7
BITMAP
FF80
FF80
FF80
FF80
ENDCHAR
STARTCHAR 002E
ENCODING 46
SWIDTH 285 0
DWIDTH 8 0
BBX 4 4 2 0
BITMAP
F0
F0
F0
F0
ENDCHAR
STARTCHAR 002F
ENCODING 47
SWIDTH 500 0
DWIDTH 14 0
BBX 14 23 0 -3
BITMAP
001C
0038
0038
0078
0070
00F0
00E0
01E0
01C0
03C0
0380
0780
0700
0700
0E00
0E00
1E00
1C00
3C00
3800
7800
7000
F000
ENDCHAR
STARTCHAR 0030
ENCODING 48
SWIDTH 892 0
DWIDTH 25 0
BBX 21 19 2 0
BITMAP
1FFFC0
7FFFF0
7FFFF0
FFFFF8
F800F8
F00078
F00078
F00078
F00078
F00078
F00078
F00078
F00078
F00078
F800F8
FFFFF8
7FFFF0
7FFFF0
1FFFC0
ENDCHAR
STARTCHAR 0031
ENCODING 49
SWIDTH 285 0
DWIDTH 8 0
BBX 4 19 2 0
BITMAP
F0
F0
F0
F0
F0
F0
F0
F0
F0
F0
F0
F0
F0
F0
F0
F0
F0
F0
F0
ENDCHAR
STARTCHAR 0032
ENCODING 50
SWIDTH 928 0
DWIDTH 26 0
BBX 23 19 1 0
BITMAP
003FF0
003FFC
003FFC
003FFE
00001E
00001E
00001E
00001E
3FFFFE
7FFFFC
FFFFF8
F00000
F00000
F00000
F00000
FFFFFE
FFFFFE
FFFFFE
FFFFFE
ENDCHAR
STARTCHAR 0033
ENCODING 51
SWIDTH 892 0
DWIDTH 25 0
BBX 23 19 1 0
BITMAP
001FF0
001FFC
001FFE
001FFE
00001E
00001E
00001E
00001E
7FFFFC
7FFFF8
7FFFFC
00001E
00001E
00001E
00001E
FFFFFE
FFFFFE
FFFFFC
FFFFF8
ENDCHAR
STARTCHAR 0034
ENCODING 52
SWIDTH 964 0
DWIDTH 27 0
BBX 23 19 2 0
BITMAP
F0001E
F0001E
F0001E
F0001E
F0001E
F0001E
F0001E
F0001E
F0001E
F0001E
FFFFFE
FFFFFE
FFFFFE
FFFFFE
00001E
00001E
00001E
00001E
00001E
ENDCHAR
STARTCHAR 0035
ENCODING 53
SWIDTH 928 0
DWIDTH 26 0
BBX 23 19 2 0
BITMAP
FFFC00
FFFC00
FFFC00
FFFC00
F00000
F00000
F00000
FFFFF0
FFFFFC
FFFFFE
FFFFFE
00001E
00001E
00001E
00001E
FFFFFE
FFFFFE
FFFFFC
FFFFF0
ENDCHAR
STARTCHAR 0036
ENCODING 54
SWIDTH 928 0
DWIDTH 26 0
BBX 23 19 2 0
BITMAP
1FF800
7FF800
7FF800
FFF800
F80000
F00000
F00000
F00000
FFFFF8
FFFFFC
FFFFFE
F0001E
F0001E
F0001E
F8001E
FFFFFE
7FFFFE
7FFFFC
1FFFF8
ENDCHAR
STARTCHAR 0037
ENCODING 55
SWIDTH 892 0
DWIDTH 25 0
BBX 23 19 1 0
BITMAP
FFFFFE
FFFFFE
FFFFFE
FFFFFE
00007C
0000F8
0001F0
0001F0
0003E0
0007C0
000F80
001F00
003E00
007E00
00FC00
00F800
01F000
03E000
07C000
ENDCHAR
STARTCHAR 0038
ENCODING 56
SWIDTH 892 0
DWIDTH 25 0
BBX 22 19 2 0
BITMAP
3FFFE0
7FFFF8
FFFFF8
FFFFFC
F0007C
F0003C
F0003C
F0007C
7FFFF8
3FFFF0
7FFFF8
F0003C
F0003C
F0003C
F0003C
FFFFFC
FFFFFC
7FFFF8
3FFFF0
ENDCHAR
STARTCHAR 0039
ENCODING 57
SWIDTH 964 0
DWIDTH 27 0
BBX 24 19 1 0
BITMAP
3FFFF8
7FFFFE
FFFFFE
FFFFFF
F0001F
F0000F
F0000F
F0000F
F0000F
7FFFFF
7FFFFF
1FFFFF
00000F
00000F
00001F
001FFF
001FFE
001FFE
001FF8
ENDCHAR
STARTCHAR 003A
ENCODING 58
SWIDTH 285 0
DWIDTH 8 0
BBX 4 14 2 0
BITMAP
F0
F0
F0
F0
00
00
00
00
00
00
F0
F0
F0
F0
ENDCHAR
STARTCHAR 003B
ENCODING 59
SWIDTH 285 0
DWIDTH 8 0
BBX 5 16 1 -2
BITMAP
78
78
78
78
00
00
00
00
00
78
78
70
70
70
F0
F0
ENDCHAR
STARTCHAR 003C
ENCODING 60
SWIDTH 607 0
DWIDTH 17 0
BBX 13 17 2 1
BITMAP
0008
0038
00F8
01F0
07C0
1F80
7E00
F800
E000
F800
7E00
1F80
07E0
01F0
00F8
0038
0008
ENDCHAR
STARTCHAR 003D
ENCODING 61
SWIDTH 607 0
DWIDTH 17 0
BBX 13 10 2 5
BITMAP
FFF8
FFF8
FFF8
0000
0000
0000
0000
FFF8
FFF8
FFF8
ENDCHAR
STARTCHAR 003E
ENCODING 62
SWIDTH 607 0
DWIDTH 17 0
BBX 13 17 2 1
BITMAP
8000
C000
F000
FC00
3F00
0FC0
03E0
00F8
0078
01F8
03E0
0FC0
3F00
FC00
F000
C000
8000
ENDCHAR
STARTCHAR 003F
ENCODING 63
SWIDTH 607 0
DWIDTH 17 0
BBX 15 19 1 0
BITMAP
07F0
07FC
07FE
07FE
001E
001E
001E
001E
3FFE
7FFC
FFF8
F000
F000
0000
0000
F000
F000
F000
F000
ENDCHAR
STARTCHAR 0040
ENCODING 64
SWIDTH 714 0
DWIDTH 20 0
BBX 17 23 2 -5
BITMAP
3FFE00
7FFF00
FFFF80
E00380
E00380
E00380
E0FF80
E1FF80
E3FF80
E3C380
E3C380
E3C380
E3C380
E3FF80
E1FF00
E0FE00
E00000
E00000
E00000
E00000
FFC000
7FC000
3FC000
ENDCHAR
STARTCHAR 0041
ENCODING 65
SWIDTH 1035 0
DWIDTH 29 0
BBX 27 20 1 0
BITMAP
000E0000
001F0000
003F8000
007FC000
007FC000
00FBE000
01F1F000
01F1F000
03E0F800
03C07800
07C07C00
0F803E00
0FFFFE00
1FFFFF00
1FFFFF00
3FFFFF80
7E000FC0
7C0007C0
F80003E0
F00003E0
ENDCHAR
STARTCHAR 0042
ENCODING 66
SWIDTH 892 0
DWIDTH 25 0
BBX 22 19 2 0
BITMAP
FFFFE0
FFFFF8
FFFFF8
FFFFFC
F0003C
F0003C
F0003C
F0003C
FFFFF8
FFFFF0
FFFFF8
F0003C
F0003C
F0003C
F0003C
FFFFFC
FFFFFC
FFFFF8
FFFFF0
ENDCHAR
STARTCHAR 0043
ENCODING 67
SWIDTH 821 0
DWIDTH 23 0
BBX 20 19 2 0
BITMAP
1FFFF0
7FFFF0
7FFFF0
FFFFF0
F80000
F00000
F00000
F00000
F00000
F00000
F00000
F00000
F00000
F00000
F80000
FFFFF0
7FFFF0
7FFFF0
1FFFF0
ENDCHAR
STARTCHAR 0044
ENCODING 68
SWIDTH 928 0
DWIDTH 26 0
BBX 22 19 2 0
BITMAP
FFFFE0
FFFFF8
FFFFF8
FFFFFC
F0007C
F0003C
F0003C
F0003C
F0003C
F0003C
F0003C
F0003C
F0003C
F0003C
F0007C
FFFFFC
FFFFF8
FFFFF8
FFFFE0
ENDCHAR
STARTCHAR 0045
ENCODING 69
SWIDTH 821 0
DWIDTH 23 0
BBX 20 19 2 0
BITMAP
1FF000
7FF000
7FF000
FFF000
F80000
F00000
F00000
FFFFF0
FFFFF0
FFFFF0
FFFFF0
F00000
F00000
F00000
F80000
FFFFF0
7FFFF0
7FFFF0
1FFFF0
ENDCHAR
STARTCHAR 0046
ENCODING 70
SWIDTH 821 0
DWIDTH 23 0
BBX 20 19 2 0
BITMAP
1FF000
7FF000
7FF000
FFF000
F80000
F00000
F00000
F00000
FFFFF0
FFFFF0
FFFFF0
FFFFF0
F00000
F00000
F00000
F00000
F00000
F00000
F00000
ENDCHAR
STARTCHAR 0047
ENCODING 71
SWIDTH 857 0
DWIDTH 24 0
BBX 21 19 2 0
BITMAP
1FF000
7FF000
7FF000
FFF000
F80000
F00000
F00000
F00078
F00078
F00078
F00078
F00078
F00078
F00078
F800F8
FFFFF8
7FFFF0
7FFFE0
1FFFC0
ENDCHAR
STARTCHAR 0048
ENCODING 72
SWIDTH 928 0
DWIDTH 26 0
BBX 22 19 2 0
BITMAP
F0003C
F0003C
F0003C
F0003C
F0003C
F0003C
F0003C
F0003C
FFFFFC
FFFFFC
FFFFFC
FFFFFC
F0003C
F0003C
F0003C
F0003C
F0003C
F0003C
F0003C
ENDCHAR
STARTCHAR 0049
ENCODING 73
SWIDTH 285 0
DWIDTH 8 0
BBX 4 19 2 0
BITMAP
F0
F0
F0
F0
F0
F0
F0
F0
F0
F0
F0
F0
F0
F0
F0
F0
F0
F0
F0
ENDCHAR
STARTCHAR 004A
ENCODING 74
SWIDTH 535 0
DWIDTH 15 0
BBX 12 19 1 0
BITMAP
00F0
00F0
00F0
00F0
00F0
00F0
00F0
00F0
00F0
00F0
00F0
00F0
00F0
00F0
01F0
FFF0
FFE0
FFE0
FF80
ENDCHAR
STARTCHAR 004B
ENCODING 75
SWIDTH 785 0
DWIDTH 22 0
BBX 20 19 2 0
BITMAP
F003F0
F007C0
F00F80
F03F00
F07E00
F0FC00
F1F000
F3E000
F7C000
FFC000
F7E000
F3F000
F1F800
F0FC00
F07E00
F01F00
F00FC0
F007E0
F003F0
ENDCHAR
STARTCHAR 004C
ENCODING 76
SWIDTH 750 0
DWIDTH 21 0
BBX 19 19 2 0
BITMAP
F00000
F00000
F00000
F00000
F00000
F00000
F00000
F00000
F00000
F00000
F00000
F00000
F00000
F00000
F80000
FFFFE0
7FFFE0
7FFFE0
1FFFE0
ENDCHAR
STARTCHAR 004D
ENCODING 77
SWIDTH 1214 0
DWIDTH 34 0
BBX 30 20 2 0
BITMAP
70000038
F800007C
F800007C
FC0000FC
FE0001FC
FF0003FC
FF0003FC
FF8007FC
F7C00FBC
F3E01F3C
F1E01E3C
F1F03E3C
F0F87C3C
F07CF83C
F03CF03C
F03FF03C
F01FE03C
F00FC03C
F007803C
F007803C
ENDCHAR
STARTCHAR 004E
ENCODING 78
SWIDTH 928 0
DWIDTH 26 0
BBX 22 20 2 0
BITMAP
700000
F8003C
FC003C
FE003C
FF003C
FF803C
F7C03C
F3E03C
F1F03C
F0F83C
F07C3C
F03E3C
F01F3C
F00FBC
F007FC
F003FC
F001FC
F000FC
F0007C
F0003C
ENDCHAR
STARTCHAR 004F
ENCODING 79
SWIDTH 892 0
DWIDTH 25 0
BBX 21 19 2 0
BITMAP
1FFFC0
7FFFF0
7FFFF0
FFFFF8
F800F8
F00078
F00078
F00078
F00078
F00078
F00078
F00078
F00078
F00078
F800F8
FFFFF8
7FFFF0
7FFFF0
1FFFC0
ENDCHAR
STARTCHAR 0050
ENCODING 80
SWIDTH 892 0
DWIDTH 25 0
BBX 22 19 2 0
BITMAP
FFFFE0
FFFFF8
FFFFF8
FFFFFC
F0007C
F0003C
F0003C
F0003C
F0003C
F0007C
FFFFFC
FFFFF8
FFFFF8
FFFFE0
F00000
F00000
F00000
F00000
F00000
ENDCHAR
STARTCHAR 0051
ENCODING 81
SWIDTH 892 0
DWIDTH 25 0
BBX 23 22 1 -3
BITMAP
1FFFE0
3FFFF0
7FFFF8
FFFFFC
F8007C
F0003C
F0003C
F0003C
F0003C
F0003C
F0003C
F0003C
F0003C
F0003C
F8007C
FFFFFC
7FFFF8
7FFFF8
1FFFF0
0000F8
00007C
00003E
ENDCHAR
STARTCHAR 0052
ENCODING 82
SWIDTH 892 0
DWIDTH 25 0
BBX 22 19 2 0
BITMAP
FFFFE0
FFFFF8
FFFFF8
FFFFFC
F0007C
F0003C
F0003C
F0003C
F0007C
FFFFF8
FFFFF8
FFFFE0
F7F000
F1FC00
F0FE00
F03F80
F01FC0
F007F0
F003FC
ENDCHAR
STARTCHAR 0053
ENCODING 83
SWIDTH 821 0
DWIDTH 23 0
BBX 21 19 1 0
BITMAP
3FE000
7FE000
FFE000
FFE000
F00000
F00000
F00000
FFFFC0
FFFFF0
7FFFF8
3FFFF8
000078
000078
000078
000078
FFFFF8
FFFFF8
FFFFF0
FFFFC0
ENDCHAR
STARTCHAR 0054
ENCODING 84
SWIDTH 750 0
DWIDTH 21 0
BBX 20 19 1 0
BITMAP
FFFFF0
FFFFF0
FFFFF0
FFFFF0
00F000
00F000
00F000
00F000
00F000
00F000
00F000
00F000
00F000
00F000
00F000
00F000
00F000
00F000
00F000
ENDCHAR
STARTCHAR 0055
ENCODING 85
SWIDTH 892 0
DWIDTH 25 0
BBX 21 19 2 0
BITMAP
F00078
F00078
F00078
F00078
F00078
F00078
F00078
F00078
F00078
F00078
F00078
F00078
F00078
F00078
F800F8
FFFFF8
7FFFF0
7FFFF0
1FFFC0
ENDCHAR
STARTCHAR 0056
ENCODING 86
SWIDTH 1035 0
DWIDTH 29 0
BBX 27 19 1 0
BITMAP
F80003E0
F80007E0
7C0007C0
7E000F80
3E000F80
1F001F00
1F003E00
0F803E00
07C07C00
07C0F800
03E0F800
01F1F000
01F1E000
00FBE000
00FFC000
007FC000
003F8000
003F0000
001E0000
ENDCHAR
STARTCHAR 0057
ENCODING 87
SWIDTH 1357 0
DWIDTH 38 0
BBX 37 20 0 0
BITMAP
0000780000
F800F800F8
7C00FC00F0
7C01FC00F0
3C01FE01F0
3E01FE01E0
1E03DF03E0
1F03CF03C0
1F07CF07C0
0F878F8780
0F8F878780
078F07CF00
07DF03CF00
03DE03FF00
03FE01FE00
01FC01FE00
01FC00FC00
01F800FC00
00F800F800
0070007800
ENDCHAR
STARTCHAR 0058
ENCODING 88
SWIDTH 1000 0
DWIDTH 28 0
BBX 27 19 1 0
BITMAP
FE000FC0
3F001F80
1F803F00
0FC07E00
07E0FC00
03F1F000
01FBE000
00FFC000
007F8000
003F8000
007FC000
00FFE000
03F3F000
07E1F800
0FC0FC00
1F807E00
3F003F00
7E001F80
FC000FE0
ENDCHAR
STARTCHAR 0059
ENCODING 89
SWIDTH 964 0
DWIDTH 27 0
BBX 26 19 0 0
BITMAP
FC000FC0
7E001F80
1F003E00
0F807C00
07E0F800
03F1F000
01FFE000
00FFC000
007F8000
003F0000
001E0000
001E0000
001E0000
001E0000
001E0000
001E0000
001E0000
001E0000
001E0000
ENDCHAR
STARTCHAR 005A
ENCODING 90
SWIDTH 857 0
DWIDTH 24 0
BBX 22 19 1 0
BITMAP
FFFFF0
FFFFF8
FFFFF8
FFFFF0
0003E0
0007C0
000F80
003F00
007E00
00F800
01F000
03E000
0FC000
1F8000
3E0000
7FFFFC
FFFFFC
FFFFFC
FFFFFC
ENDCHAR
STARTCHAR 005B
ENCODING 91
SWIDTH 357 0
DWIDTH 10 0
BBX 7 31 3 -7
BITMAP
FE
FE
FE
E0
E0
E0
E0
E0
E0
E0
E0
E0
E0
E0
E0
E0
E0
E0
E0
E0
E0
E0
E0
E0
E0
E0
E0
E0
FE
FE
FE
ENDCHAR
STARTCHAR 005C
ENCODING 92
SWIDTH 500 0
DWIDTH 14 0
BBX 14 23 0 -3
BITMAP
F000
7000
7800
3800
3C00
1C00
1C00
0E00
0E00
0700
0700
0780
0380
03C0
01C0
01E0
00E0
00F0
0070
0078
0038
0038
001C
ENDCHAR
STARTCHAR 005D
ENCODING 93
SWIDTH 357 0
DWIDTH 10 0
BBX 7 31 0 -7
BITMAP
FE
FE
FE
0E
0E
0E
0E
0E
0E
0E
0E
0E
0E
0E
0E
0E
0E
0E
0E
0E
0E
0E
0E
0E
0E
0E
0E
0E
FE
FE
FE
ENDCHAR
STARTCHAR 005E
ENCODING 94
SWIDTH 607 0
DWIDTH 17 0
BBX 15 14 1 6
BITMAP
0380
03C0
07C0
07E0
0FE0
0EF0
1E70
1C70
3C38
3838
781C
701C
F01E
E00E
ENDCHAR
STARTCHAR 005F
ENCODING 95
SWIDTH 678 0
DWIDTH 19 0
BBX 19 3 0 -4
BITMAP
FFFFE0
FFFFE0
FFFFE0
ENDCHAR
STARTCHAR 0060
ENCODING 96
SWIDTH 392 0
DWIDTH 11 0
BBX 7 6 2 17
BITMAP
F0
78
78
3C
1E
0E
ENDCHAR
STARTCHAR 0061
ENCODING 97
SWIDTH 857 0
DWIDTH 24 0
BBX 21 15 1 0
BITMAP
003FC0
003FF0
003FF0
000078
000078
3FFFF8
7FFFF8
FFFFF8
F00078
F00078
F00078
F000F8
FFFFF0
7FFFF0
3FFFC0
ENDCHAR
STARTCHAR 0062
ENCODING 98
SWIDTH 821 0
DWIDTH 23 0
BBX 19 20 2 0
BITMAP
F00000
F00000
F00000
F00000
F00000
FFFF00
FFFFC0
FFFFC0
FFFFE0
F003E0
F001E0
F001E0
F001E0
F001E0
F001E0
F803E0
FFFFE0
7FFFC0
7FFFC0
1FFF00
ENDCHAR
STARTCHAR 0063
ENCODING 99
SWIDTH 750 0
DWIDTH 21 0
BBX 18 15 2 0
BITMAP
1FFFC0
7FFFC0
7FFFC0
FFFFC0
F80000
F00000
F00000
F00000
F00000
F00000
F80000
FFFFC0
7FFFC0
7FFFC0
1FFFC0
ENDCHAR
STARTCHAR 0064
ENCODING 100
SWIDTH 821 0
DWIDTH 23 0
BBX 20 20 1 0
BITMAP
0000F0
0000F0
0000F0
0000F0
0000F0
1FFFF0
3FFFF0
7FFFF0
FFFFF0
F800F0
F000F0
F000F0
F000F0
F000F0
F000F0
F801F0
FFFFF0
7FFFE0
7FFFE0
1FFF80
ENDCHAR
STARTCHAR 0065
ENCODING 101
SWIDTH 785 0
DWIDTH 22 0
BBX 19 15 2 0
BITMAP
1FFF80
7FFFC0
7FFFE0
F001E0
F001E0
F001E0
FFFFE0
FFFFE0
FFFFE0
F00000
F00000
F00000
7FE000
7FE000
1FE000
ENDCHAR
STARTCHAR 0066
ENCODING 102
SWIDTH 428 0
DWIDTH 12 0
BBX 10 20 2 0
BITMAP
3FC0
7FC0
FFC0
F000
F000
FFC0
FFC0
FFC0
FFC0
F000
F000
F000
F000
F000
F000
F000
F000
F000
F000
F000
ENDCHAR
STARTCHAR 0067
ENCODING 103
SWIDTH 785 0
DWIDTH 22 0
BBX 20 20 1 -5
BITMAP
1FFF80
7FFFE0
FFFFE0
FFFFF0
F801F0
F000F0
F000F0
F000F0
F000F0
F000F0
FFFFF0
7FFFF0
1FFFF0
0000F0
0000F0
0000F0
00FFF0
00FFF0
00FFE0
00FFC0
ENDCHAR
STARTCHAR 0068
ENCODING 104
SWIDTH 821 0
DWIDTH 23 0
BBX 19 20 2 0
BITMAP
F00000
F00000
F00000
F00000
F00000
FFFF00
FFFFC0
FFFFC0
FFFFE0
F003E0
F001E0
F001E0
F001E0
F001E0
F001E0
F001E0
F001E0
F001E0
F001E0
F001E0
ENDCHAR
STARTCHAR 0069
ENCODING 105
SWIDTH 285 0
DWIDTH 8 0
BBX 4 20 2 0
BITMAP
F0
F0
F0
F0
00
F0
F0
F0
F0
F0
F0
F0
F0
F0
F0
F0
F0
F0
F0
F0
ENDCHAR
STARTCHAR 006A
ENCODING 106
SWIDTH 285 0
DWIDTH 8 0
BBX 8 25 -2 -5
BITMAP
0F
0F
0F
0F
00
0F
0F
0F
0F
0F
0F
0F
0F
0F
0F
0F
0F
0F
0F
0F
1F
FF
FE
FC
F8
ENDCHAR
STARTCHAR 006B
ENCODING 107
SWIDTH 714 0
DWIDTH 20 0
BBX 18 20 2 0
BITMAP
F00000
F00000
F00000
F00000
F00000
F00F80
F01F00
F07E00
F0FC00
F1F000
F3E000
FFC000
FF8000
F7C000
F3F000
F1F800
F07C00
F03E00
F01F80
F00FC0
ENDCHAR
STARTCHAR 006C
ENCODING 108
SWIDTH 285 0
DWIDTH 8 0
BBX 4 20 2 0
BITMAP
F0
F0
F0
F0
F0
F0
F0
F0
F0
F0
F0
F0
F0
F0
F0
F0
F0
F0
F0
F0
ENDCHAR
STARTCHAR 006D
ENCODING 109
SWIDTH 1142 0
DWIDTH 32 0
BBX 28 15 2 0
BITMAP
3FF0FFC0
7FF9FFE0
FFFFFFF0
FFFFFFF0
F81F81F0
F00F00F0
F00F00F0
F00F00F0
F00F00F0
F00F00F0
F00F00F0
F00F00F0
F00F00F0
F00F00F0
F00F00F0
ENDCHAR
STARTCHAR 006E
ENCODING 110
SWIDTH 821 0
DWIDTH 23 0
BBX 19 15 2 0
BITMAP
1FFF00
7FFFC0
7FFFC0
FFFFE0
F803E0
F001E0
F001E0
F001E0
F001E0
F001E0
F001E0
F001E0
F001E0
F001E0
F001E0
ENDCHAR
STARTCHAR 006F
ENCODING 111
SWIDTH 821 0
DWIDTH 23 0
BBX 19 15 2 0
BITMAP
1FFF00
7FFFC0
7FFFC0
FFFFE0
F803E0
F001E0
F001E0
F001E0
F001E0
F001E0
F803E0
FFFFE0
7FFFC0
7FFFC0
1FFF00
ENDCHAR
STARTCHAR 0070
ENCODING 112
SWIDTH 821 0
DWIDTH 23 0
BBX 19 20 2 -5
BITMAP
1FFF00
7FFFC0
7FFFC0
FFFFE0
F803E0
F001E0
F001E0
F001E0
F001E0
F001E0
F003E0
FFFFE0
FFFFC0
FFFFC0
FFFF00
F00000
F00000
F00000
F00000
F00000
ENDCHAR
STARTCHAR 0071
ENCODING 113
SWIDTH 821 0
DWIDTH 23 0
BBX 20 20 1 -5
BITMAP
1FFF80
7FFFC0
7FFFE0
FFFFF0
F801F0
F000F0
F000F0
F000F0
F000F0
F000F0
F800F0
FFFFF0
7FFFF0
7FFFF0
1FFFF0
0000F0
0000F0
0000F0
0000F0
0000F0
ENDCHAR
STARTCHAR 0072
ENCODING 114
SWIDTH 428 0
DWIDTH 12 0
BBX 10 15 2 0
BITMAP
1FC0
3FC0
7FC0
FFC0
F800
F000
F000
F000
F000
F000
F000
F000
F000
F000
F000
ENDCHAR
STARTCHAR 0073
ENCODING 115
SWIDTH 714 0
DWIDTH 20 0
BBX 18 15 1 0
BITMAP
7FC000
FFC000
FFC000
F00000
F00000
F00000
FFFF00
FFFF80
7FFFC0
0003C0
0003C0
FFFFC0
FFFFC0
FFFFC0
FFFF00
ENDCHAR
STARTCHAR 0074
ENCODING 116
SWIDTH 428 0
DWIDTH 12 0
BBX 11 19 1 0
BITMAP
3C00
3C00
3C00
3C00
FFE0
FFE0
FFE0
FFE0
3C00
3C00
3C00
3C00
3C00
3C00
3C00
3C00
3C00
3C00
3C00
ENDCHAR
STARTCHAR 0075
ENCODING 117
SWIDTH 821 0
DWIDTH 23 0
BBX 19 15 2 0
BITMAP
F001E0
F001E0
F001E0
F001E0
F001E0
F001E0
F001E0
F001E0
F001E0
F001E0
F803E0
FFFFE0
7FFFC0
7FFFC0
1FFF00
ENDCHAR
STARTCHAR 0076
ENCODING 118
SWIDTH 928 0
DWIDTH 26 0
BBX 25 15 1 0
BITMAP
F8000F80
F8001F00
7C003E00
3E003C00
1E007C00
1F00F800
0F81F000
07C1F000
03C3E000
03E7C000
01F78000
00FF8000
00FF0000
007E0000
003C0000
ENDCHAR
STARTCHAR 0077
ENCODING 119
SWIDTH 1107 0
DWIDTH 31 0
BBX 31 16 0 0
BITMAP
F803803E
7807C03C
7807C03C
3C0FE078
3C0FE078
3E1EF0F0
1E1EF0F0
1F3C71E0
0F3C79E0
0F787BE0
07F83FC0
07F03FC0
03F01F80
03E01F80
03E00F00
01C00600
ENDCHAR
STARTCHAR 0078
ENCODING 120
SWIDTH 750 0
DWIDTH 21 0
BBX 19 15 1 0
BITMAP
F803E0
7C07C0
3E0F80
1F1F00
0FBE00
07FC00
03F800
01F000
03F800
07FC00
0FBE00
1F1F00
3E0F80
7C07C0
F803E0
ENDCHAR
STARTCHAR 0079
ENCODING 121
SWIDTH 821 0
DWIDTH 23 0
BBX 19 20 2 -5
BITMAP
F001E0
F001E0
F001E0
F001E0
F001E0
F001E0
F001E0
F001E0
F001E0
F001E0
FFFFE0
7FFFE0
7FFFE0
1FFFE0
0001E0
0001E0
00FFE0
00FFE0
00FFC0
00FF80
ENDCHAR
STARTCHAR 007A
ENCODING 122
SWIDTH 714 0
DWIDTH 20 0
BBX 18 15 1 0
BITMAP
FFFF80
FFFF80
FFFF80
001F00
003E00
00FC00
01F000
03E000
07C000
0F8000
1F0000
7E0000
FFFFC0
FFFFC0
FFFFC0
ENDCHAR
STARTCHAR 007B
ENCODING 123
SWIDTH 321 0
DWIDTH 9 0
BBX 9 31 0 -7
BITMAP
0F80
1F80
1F80
1C00
1C00
1C00
1C00
1C00
1C00
1C00
1C00
1C00
1C00
1C00
FC00
F000
FC00
1C00
1C00
1C00
1C00
1C00
1C00
1C00
1C00
1C00
1C00
1C00
1F80
1F80
0F80
ENDCHAR
STARTCHAR 007C
ENCODING 124
SWIDTH 250 0
DWIDTH 7 0
BBX 3 30 2 -6
BITMAP
E0
E0
E0
E0
E0
E0
E0
E0
E0
E0
E0
E0
E0
E0
E0
E0
E0
E0
E0
E0
E0
E0
E0
E0
E0
E0
E0
E0
E0
E0
ENDCHAR
STARTCHAR 007D
ENCODING 125
SWIDTH 321 0
DWIDTH 9 0
BBX 9 31 0 -7
BITMAP
F800
FC00
FC00
1C00
1C00
1C00
1C00
1C00
1C00
1C00
1C00
1C00
1C00
1C00
1F80
0780
1F80
1C00
1C00
1C00
1C00
1C00
1C00
1C00
1C00
1C00
1C00
1C00
FC00
FC00
F800
ENDCHAR
STARTCHAR 007E
ENCODING 126
SWIDTH 607 0
DWIDTH 17 0
BBX 13 4 2 8
BITMAP
7800
FF38
EFF8
01E0
ENDCHAR
STARTCHAR 00A0
ENCODING 160
SWIDTH 392 0
DWIDTH 11 0
BBX 0 0 0 0
BITMAP
ENDCHAR
STARTCHAR 00A1
ENCODING 161
SWIDTH 285 0
DWIDTH 8 0
BBX 4 19 2 0
BITMAP
F0
F0
F0
F0
00
00
F0
F0
F0
F0
F0
F0
F0
F0
F0
F0
F0
F0
F0
ENDCHAR
STARTCHAR 00A2
ENCODING 162
SWIDTH 750 0
DWIDTH 21 0
BBX 19 19 1 0
BITMAP
003800
003800
0FFFE0
3FFFE0
7FFFE0
FFFFE0
F83800
F03800
F03800
F03800
F03800
F03800
F83800
FFFFE0
7FFFE0
3FFFE0
0FFFE0
003800
003800
ENDCHAR
STARTCHAR 00A3
ENCODING 163
SWIDTH 857 0
DWIDTH 24 0
BBX 21 19 1 0
BITMAP
07F800
1FF800
1FF800
3FF800
3E0000
3C0000
3C0000
3C0000
3FFFF8
3FFFF8
3FFFF8
3C0000
3C0000
3C0000
3C0000
FFFFF8
FFFFF8
FFFFF8
FFFFF8
ENDCHAR
STARTCHAR 00A4
ENCODING 164
SWIDTH 714 0
DWIDTH 20 0
BBX 19 19 1 0
BITMAP
400040
E000E0
7001C0
380380
1FFF00
0FFE00
0FFE00
0E0E00
0E0E00
0E0E00
0E0E00
0E0E00
0FFE00
1FFE00
3FFF00
380380
7001C0
E000E0
400040
ENDCHAR
STARTCHAR 00A5
ENCODING 165
SWIDTH 857 0
DWIDTH 24 0
BBX 23 19 1 0
BITMAP
F8003E
7C0078
3E00F0
1F01E0
0F87C0
07CF80
03FF00
01FE00
00FC00
3FFFF0
3FFFF0
3FFFF0
007800
007800
3FFFF0
3FFFF0
3FFFF0
007800
007800
ENDCHAR
STARTCHAR 00A6
ENCODING 166
SWIDTH 250 0
DWIDTH 7 0
BBX 3 30 2 -6
BITMAP
E0
E0
E0
E0
E0
E0
E0
E0
E0
E0
E0
E0
E0
00
00
00
00
E0
E0
E0
E0
E0
E0
E0
E0
E0
E0
E0
E0
E0
ENDCHAR
STARTCHAR 00A7
ENCODING 167
SWIDTH 750 0
DWIDTH 21 0
BBX 18 25 1 -6
BITMAP
1FF800
7FF800
FFF800
F80000
F00000
F00000
F00000
FFFE00
FFFF80
FFFFC0
F007C0
F003C0
F003C0
F003C0
F803C0
FFFFC0
7FFFC0
1FFFC0
0003C0
0003C0
0003C0
0007C0
FFFFC0
FFFF80
FFFE00
ENDCHAR
STARTCHAR 00A8
ENCODING 168
SWIDTH 535 0
DWIDTH 15 0
BBX 11 4 2 16
BITMAP
F1E0
F1E0
F1E0
F1E0
ENDCHAR
STARTCHAR 00A9
ENCODING 169
SWIDTH 928 0
DWIDTH 26 0
BBX 24 19 0 0
BITMAP
0FFFF0
3FFFFC
7FFFFE
F8001F
F0000F
E0FF87
E1FF87
E18007
E18007
E18007
E18007
E18007
E1FF87
E0FF87
E0000F
F8001F
7FFFFE
3FFFFC
0FFFF0
ENDCHAR
STARTCHAR 00AA
ENCODING 170
SWIDTH 535 0
DWIDTH 15 0
BBX 12 10 1 8
BITMAP
03C0
03F0
03F0
0070
7FF0
FFF0
E070
E070
FFF0
7FE0
ENDCHAR
STARTCHAR 00AB
ENCODING 171
SWIDTH 571 0
DWIDTH 16 0
BBX 14 12 1 3
BITMAP
0404
0C0C
1C1C
3C3C
F8F8
F0F0
E0E0
F0F0
F8F8
3C3C
1C1C
0C0C
ENDCHAR
STARTCHAR 00AC
ENCODING 172
SWIDTH 607 0
DWIDTH 17 0
BBX 14 12 1 0
BITMAP
FFFC
FFFC
FFFC
001C
001C
001C
001C
001C
001C
001C
001C
001C
ENDCHAR
STARTCHAR 00AE
ENCODING 174
SWIDTH 928 0
DWIDTH 26 0
BBX 24 20 0 0
BITMAP
0FFFF0
3FFFFC
7FFFFE
F8001F
F0000F
E00007
E1FF87
E1FFC7
E180C7
E180C7
E1FF87
E1B807
E18E07
E18387
E00007
F0000F
F8001F
7FFFFE
3FFFFC
0FFFF0
ENDCHAR
STARTCHAR 00AF
ENCODING 175
SWIDTH 642 0
DWIDTH 18 0
BBX 14 3 2 18
BITMAP
FFFC
FFFC
FFFC
ENDCHAR
STARTCHAR 00B0
ENCODING 176
SWIDTH 464 0
DWIDTH 13 0
BBX 11 10 1 9
BITMAP
3F80
FFE0
FFE0
E0E0
E0E0
E0E0
E0E0
FFE0
FFE0
7FC0
ENDCHAR
STARTCHAR 00B1
ENCODING 177
SWIDTH 607 0
DWIDTH 17 0
BBX 13 17 2 -1
BITMAP
0700
0700
0700
0700
0700
FFF8
FFF8
FFF8
0700
0700
0700
0700
0700
0000
FFF8
FFF8
FFF8
ENDCHAR
STARTCHAR 00B2
ENCODING 178
SWIDTH 500 0
DWIDTH 14 0
BBX 12 11 1 9
BITMAP
07E0
07E0
07F0
7FF0
FFF0
FFE0
E000
C000
FFF0
FFF0
FFF0
ENDCHAR
STARTCHAR 00B3
ENCODING 179
SWIDTH 500 0
DWIDTH 14 0
BBX 12 11 1 9
BITMAP
07E0
07F0
07F0
0070
FFF0
FFF0
0070
0070
FFF0
FFF0
FFE0
ENDCHAR
STARTCHAR 00B4
ENCODING 180
SWIDTH 392 0
DWIDTH 11 0
BBX 7 6 2 17
BITMAP
1E
3C
3C
78
70
E0
ENDCHAR
STARTCHAR 00B6
ENCODING 182
SWIDTH 892 0
DWIDTH 25 0
BBX 22 25 1 -5
BITMAP
3FFFFC
7FFFFC
FFFFFC
F0783C
F0783C
F0783C
F0783C
F0783C
F0783C
FFF83C
7FF83C
3FF83C
00783C
00783C
00783C
00783C
00783C
00783C
00783C
00783C
00783C
00783C
00783C
00783C
00783C
ENDCHAR
STARTCHAR 00B7
ENCODING 183
SWIDTH 285 0
DWIDTH 8 0
BBX 4 4 2 7
BITMAP
F0
F0
F0
F0
ENDCHAR
STARTCHAR 00B8
ENCODING 184
SWIDTH 285 0
DWIDTH 8 0
BBX 4 5 2 -6
BITMAP
F0
F0
E0
E0
E0
ENDCHAR
STARTCHAR 00B9
ENCODING 185
SWIDTH 178 0
DWIDTH 5 0
BBX 3 9 1 10
BITMAP
E0
E0
E0
E0
E0
E0
E0
E0
E0
ENDCHAR
STARTCHAR 00BA
ENCODING 186
SWIDTH 535 0
DWIDTH 15 0
BBX 11 9 2 8
BITMAP
7FC0
FFE0
FFE0
E0E0
E0E0
E0E0
FFE0
FFE0
7FC0
ENDCHAR
STARTCHAR 00BB
ENCODING 187
SWIDTH 571 0
DWIDTH 16 0
BBX 14 11 1 4
BITMAP
C0C0
E0E0
F0F0
F8F8
3C3C
1C1C
3C3C
7878
F0F0
E0E0
C0C0
ENDCHAR
STARTCHAR 00BC
ENCODING 188
SWIDTH 928 0
DWIDTH 26 0
BBX 24 19 1 0
BITMAP
380700
380F00
380E00
381C00
383C00
383800
387000
38E000
38E000
01C000
038E07
078E07
070E07
0E0E07
1E0FFF
1C0FFF
380FFF
700007
F00007
ENDCHAR
STARTCHAR 00BD
ENCODING 189
SWIDTH 857 0
DWIDTH 24 0
BBX 21 20 1 -1
BITMAP
380700
380F00
380E00
381C00
383C00
383800
387000
38E000
39E000
01C3F0
0383F0
0783F8
073FF8
0E7FF8
1E7FF0
1C7000
386000
707FF8
F07FF8
007FF8
ENDCHAR
STARTCHAR 00BE
ENCODING 190
SWIDTH 1107 0
DWIDTH 31 0
BBX 29 20 1 0
BITMAP
07E00000
07F01C00
07F03C00
00703800
FFF07000
FFF0F000
0070E000
0071C000
FFF38000
FFF38000
FFE70000
000E7038
001E7038
001C7038
00387038
00787FF8
00707FF8
00E07FF8
01C00038
03C00038
ENDCHAR
STARTCHAR 00BF
ENCODING 191
SWIDTH 607 0
DWIDTH 17 0
BBX 15 19 1 0
BITMAP
001E
001E
001E
001E
0000
0000
001E
001E
3FFE
7FFC
FFF8
F000
F000
F000
F000
FFC0
FFC0
7FC0
1FC0
ENDCHAR
STARTCHAR 00C0
ENCODING 192
SWIDTH 1035 0
DWIDTH 29 0
BBX 27 27 1 0
BITMAP
00F00000
00780000
00380000
003C0000
001E0000
000E0000
00000000
000E0000
001F0000
003F8000
007FC000
007FC000
00FBE000
01F1F000
01F1F000
03E0F800
03C07800
07C07C00
0F803E00
0FFFFE00
1FFFFF00
1FFFFF00
3FFFFF80
7E000FC0
7C0007C0
F80003E0
F00003E0
ENDCHAR
STARTCHAR 00C1
ENCODING 193
SWIDTH 1035 0
DWIDTH 29 0
BBX 27 27 1 0
BITMAP
0003C000
00078000
00078000
000F0000
000E0000
001C0000
00000000
000E0000
001F0000
003F8000
007FC000
007FC000
00FBE000
01F1F000
01F1F000
03E0F800
03C07800
07C07C00
0F803E00
0FFFFE00
1FFFFF00
1FFFFF00
3FFFFF80
7E000FC0
7C0007C0
F80003E0
F00003E0
ENDCHAR
STARTCHAR 00C2
ENCODING 194
SWIDTH 1035 0
DWIDTH 29 0
BBX 27 28 1 0
BITMAP
000F0000
001F0000
003F8000
003FC000
0079E000
00F1E000
00F0F000
01E07800
000E0000
001F0000
003F8000
007FC000
007FC000
00FBE000
01F1F000
01F1F000
03E0F800
03C07800
07C07C00
0F803E00
0FFFFE00
1FFFFF00
1FFFFF00
3FFFFF80
7E000FC0
7C0007C0
F80003E0
F00003E0
ENDCHAR
STARTCHAR 00C3
ENCODING 195
SWIDTH 1035 0
DWIDTH 29 0
BBX 27 25 1 0
BITMAP
03FFF000
03FFF000
03FFF000
00000000
00000000
000E0000
001F0000
003F8000
007FC000
007FC000
00FBE000
01F1F000
01F1F000
03E0F800
03C07800
07C07C00
0F803E00
0FFFFE00
1FFFFF00
1FFFFF00
3FFFFF80
7E000FC0
7C0007C0
F80003E0
F00003E0
ENDCHAR
STARTCHAR 00C4
ENCODING 196
SWIDTH 1035 0
DWIDTH 29 0
BBX 27 24 1 0
BITMAP
00F1E000
00F1E000
00F1E000
00F1E000
000E0000
001F0000
003F8000
007FC000
007FC000
00FBE000
01F1F000
01F1F000
03E0F800
03C07800
07C07C00
0F803E00
0FFFFE00
1FFFFF00
1FFFFF00
3FFFFF80
7E000FC0
7C0007C0
F80003E0
F00003E0
ENDCHAR
STARTCHAR 00C5
ENCODING 197
SWIDTH 1035 0
DWIDTH 29 0
BBX 27 28 1 0
BITMAP
003FC000
007FE000
0070E000
0070E000
0070E000
0070E000
007FE000
003FC000
000E0000
001F0000
003F8000
007FC000
007FC000
00FBE000
01F1F000
01F1F000
03E0F800
03C07800
07C07C00
0F803E00
0FFFFE00
1FFFFF00
1FFFFF00
3FFFFF80
7E000FC0
7C0007C0
F80003E0
F00003E0
ENDCHAR
STARTCHAR 00C6
ENCODING 198
SWIDTH 1357 0
DWIDTH 38 0
BBX 36 19 1 0
BITMAP
000FFFF000
001FFFF000
003FFFF000
007FFFF000
007CF00000
00F8F00000
01F8F00000
01F0F00000
03E0FFFFF0
07C0FFFFF0
07C0FFFFF0
0FFFF00000
0FFFF00000
1FFFF00000
3FFFF00000
3E00FFFFF0
7C00FFFFF0
FC007FFFF0
F8001FFFF0
ENDCHAR
STARTCHAR 00C7
ENCODING 199
SWIDTH 821 0
DWIDTH 23 0
BBX 20 25 2 -6
BITMAP
1FFFF0
7FFFF0
7FFFF0
FFFFF0
F80000
F00000
F00000
F00000
F00000
F00000
F00000
F00000
F00000
F00000
F80000
FFFFF0
7FFFF0
7FFFF0
1FFFF0
000000
00F000
00F000
00E000
00E000
00E000
ENDCHAR
STARTCHAR 00C8
ENCODING 200
SWIDTH 821 0
DWIDTH 23 0
BBX 20 27 2 0
BITMAP
078000
03C000
01C000
01E000
00F000
007000
000000
000000
1FF000
7FF000
7FF000
FFF000
F80000
F00000
F00000
FFFFF0
FFFFF0
FFFFF0
FFFFF0
F00000
F00000
F00000
F80000
FFFFF0
7FFFF0
7FFFF0
1FFFF0
ENDCHAR
STARTCHAR 00C9
ENCODING 201
SWIDTH 821 0
DWIDTH 23 0
BBX 20 27 2 0
BITMAP
003C00
007800
007800
00F000
00E000
01C000
000000
000000
1FF000
7FF000
7FF000
FFF000
F80000
F00000
F00000
FFFFF0
FFFFF0
FFFFF0
FFFFF0
F00000
F00000
F00000
F80000
FFFFF0
7FFFF0
7FFFF0
1FFFF0
ENDCHAR
STARTCHAR 00CA
ENCODING 202
SWIDTH 821 0
DWIDTH 23 0
BBX 20 28 2 0
BITMAP
007800
00F800
01FC00
01FE00
03CF00
078F00
078780
0F03C0
000000
1FF000
7FF000
7FF000
FFF000
F80000
F00000
F00000
FFFFF0
FFFFF0
FFFFF0
FFFFF0
F00000
F00000
F00000
F80000
FFFFF0
7FFFF0
7FFFF0
1FFFF0
ENDCHAR
STARTCHAR 00CB
ENCODING 203
SWIDTH 821 0
DWIDTH 23 0
BBX 20 24 2 0
BITMAP
078F00
078F00
078F00
078F00
000000
1FF000
7FF000
7FF000
FFF000
F80000
F00000
F00000
FFFFF0
FFFFF0
FFFFF0
FFFFF0
F00000
F00000
F00000
F80000
FFFFF0
7FFFF0
7FFFF0
1FFFF0
ENDCHAR
STARTCHAR 00CC
ENCODING 204
SWIDTH 285 0
DWIDTH 8 0
BBX 7 27 -1 0
BITMAP
F0
78
38
3C
1E
0E
00
00
1E
1E
1E
1E
1E
1E
1E
1E
1E
1E
1E
1E
1E
1E
1E
1E
1E
1E
1E
ENDCHAR
STARTCHAR 00CD
ENCODING 205
SWIDTH 285 0
DWIDTH 8 0
BBX 7 27 2 0
BITMAP
1E
3C
3C
78
70
E0
00
00
F0
F0
F0
F0
F0
F0
F0
F0
F0
F0
F0
F0
F0
F0
F0
F0
F0
F0
F0
ENDCHAR
STARTCHAR 00CE
ENCODING 206
SWIDTH 285 0
DWIDTH 8 0
BBX 14 28 -3 0
BITMAP
0780
0F80
1FC0
1FE0
3CF0
78F0
7878
F03C
0000
0780
0780
0780
0780
0780
0780
0780
0780
0780
0780
0780
0780
0780
0780
0780
0780
0780
0780
0780
ENDCHAR
STARTCHAR 00CF
ENCODING 207
SWIDTH 285 0
DWIDTH 8 0
BBX 11 24 -1 0
BITMAP
F1E0
F1E0
F1E0
F1E0
0000
1E00
1E00
1E00
1E00
1E00
1E00
1E00
1E00
1E00
1E00
1E00
1E00
1E00
1E00
1E00
1E00
1E00
1E00
1E00
ENDCHAR
STARTCHAR 00D0
ENCODING 208
SWIDTH 964 0
DWIDTH 27 0
BBX 25 19 0 0
BITMAP
3FFFF800
3FFFFE00
3FFFFF00
3FFFFF80
3C000F80
3C000780
3C000780
3C000780
FFFC0780
FFFC0780
FFFC0780
3C000780
3C000780
3C000780
3C000F80
3FFFFF80
3FFFFF00
3FFFFE00
3FFFFC00
ENDCHAR
STARTCHAR 00D1
ENCODING 209
SWIDTH 928 0
DWIDTH 26 0
BBX 22 25 2 0
BITMAP
0FFFC0
0FFFC0
0FFFC0
000000
000000
700000
F8003C
FC003C
FE003C
FF003C
FF803C
F7C03C
F3E03C
F1F03C
F0F83C
F07C3C
F03E3C
F01F3C
F00FBC
F007FC
F003FC
F001FC
F000FC
F0007C
F0003C
ENDCHAR
STARTCHAR 00D2
ENCODING 210
SWIDTH 892 0
DWIDTH 25 0
BBX 21 27 2 0
BITMAP
078000
03C000
01C000
01E000
00F000
007000
000000
000000
1FFFC0
7FFFF0
7FFFF0
FFFFF8
F800F8
F00078
F00078
F00078
F00078
F00078
F00078
F00078
F00078
F00078
F800F8
FFFFF8
7FFFF0
7FFFF0
1FFFC0
ENDCHAR
STARTCHAR 00D3
ENCODING 211
SWIDTH 892 0
DWIDTH 25 0
BBX 21 27 2 0
BITMAP
001E00
003C00
003C00
007800
007000
00E000
000000
000000
1FFFC0
7FFFF0
7FFFF0
FFFFF8
F800F8
F00078
F00078
F00078
F00078
F00078
F00078
F00078
F00078
F00078
F800F8
FFFFF8
7FFFF0
7FFFF0
1FFFC0
ENDCHAR
STARTCHAR 00D4
ENCODING 212
SWIDTH 892 0
DWIDTH 25 0
BBX 21 28 2 0
BITMAP
007800
00F800
01FC00
01FE00
03CF00
078F00
078780
0F03C0
000000
1FFFC0
7FFFF0
7FFFF0
FFFFF8
F800F8
F00078
F00078
F00078
F00078
F00078
F00078
F00078
F00078
F00078
F800F8
FFFFF8
7FFFF0
7FFFF0
1FFFC0
ENDCHAR
STARTCHAR 00D5
ENCODING 213
SWIDTH 892 0
DWIDTH 25 0
BBX 21 25 2 0
BITMAP
1FFF80
1FFF80
1FFF80
000000
000000
000000
1FFFC0
7FFFF0
7FFFF0
FFFFF8
F800F8
F00078
F00078
F00078
F00078
F00078
F00078
F00078
F00078
F00078
F800F8
FFFFF8
7FFFF0
7FFFF0
1FFFC0
ENDCHAR
STARTCHAR 00D6
ENCODING 214
SWIDTH 892 0
DWIDTH 25 0
BBX 21 24 2 0
BITMAP
078F00
078F00
078F00
078F00
000000
1FFFC0
7FFFF0
7FFFF0
FFFFF8
F800F8
F00078
F00078
F00078
F00078
F00078
F00078
F00078
F00078
F00078
F800F8
FFFFF8
7FFFF0
7FFFF0
1FFFC0
ENDCHAR
STARTCHAR 00D7
ENCODING 215
SWIDTH 607 0
DWIDTH 17 0
BBX 11 12 3 4
BITMAP
4080
E1C0
F3E0
7FC0
3F80
1F00
1F00
3F80
7FC0
F3E0
E1C0
4080
ENDCHAR
STARTCHAR 00D8
ENCODING 216
SWIDTH 892 0
DWIDTH 25 0
BBX 21 25 2 -3
BITMAP
000078
0000F0
0001E0
1FFFE0
7FFFF0
7FFFF0
FFFFF8
F80F78
F01E78
F01C78
F03C78
F07878
F07078
F0F078
F1E078
F1C078
F3C078
F780F8
FFFFF8
7FFFF0
7FFFF0
3FFFC0
3C0000
780000
F00000
ENDCHAR
STARTCHAR 00D9
ENCODING 217
SWIDTH 892 0
DWIDTH 25 0
BBX 21 27 2 0
BITMAP
078000
03C000
01C000
01E000
00F000
007000
000000
000000
F00078
F00078
F00078
F00078
F00078
F00078
F00078
F00078
F00078
F00078
F00078
F00078
F00078
F00078
F800F8
FFFFF8
7FFFF0
7FFFF0
1FFFC0
ENDCHAR
STARTCHAR 00DA
ENCODING 218
SWIDTH 892 0
DWIDTH 25 0
BBX 21 27 2 0
BITMAP
001E00
003C00
003C00
007800
007000
00E000
000000
000000
F00078
F00078
F00078
F00078
F00078
F00078
F00078
F00078
F00078
F00078
F00078
F00078
F00078
F00078
F800F8
FFFFF8
7FFFF0
7FFFF0
1FFFC0
ENDCHAR
STARTCHAR 00DB
ENCODING 219
SWIDTH 892 0
DWIDTH 25 0
BBX 21 28 2 0
BITMAP
007800
00F800
01FC00
01FE00
03CF00
078F00
078780
0F03C0
000000
F00078
F00078
F00078
F00078
F00078
F00078
F00078
F00078
F00078
F00078
F00078
F00078
F00078
F00078
F800F8
FFFFF8
7FFFF0
7FFFF0
1FFFC0
ENDCHAR
STARTCHAR 00DC
ENCODING 220
SWIDTH 892 0
DWIDTH 25 0
BBX 21 24 2 0
BITMAP
078F00
078F00
078F00
078F00
000000
F00078
F00078
F00078
F00078
F00078
F00078
F00078
F00078
F00078
F00078
F00078
F00078
F00078
F00078
F800F8
FFFFF8
7FFFF0
7FFFF0
1FFFC0
ENDCHAR
STARTCHAR 00DD
ENCODING 221
SWIDTH 964 0
DWIDTH 27 0
BBX 26 27 0 0
BITMAP
0003C000
00078000
00078000
000F0000
000E0000
001C0000
00000000
00000000
FC000FC0
7E001F80
1F003F00
0F807C00
07E0F800
03F1F000
01FFE000
00FFC000
007F8000
003F0000
001E0000
001E0000
001E0000
001E0000
001E0000
001E0000
001E0000
001E0000
001E0000
ENDCHAR
STARTCHAR 00DE
ENCODING 222
SWIDTH 892 0
DWIDTH 25 0
BBX 22 19 2 0
BITMAP
F00000
F00000
FFFFE0
FFFFF8
FFFFF8
FFFFFC
F0007C
F0003C
F0003C
F0003C
F0003C
F0003C
F0007C
FFFFFC
FFFFF8
FFFFF8
FFFFE0
F00000
F00000
ENDCHAR
STARTCHAR 00DF
ENCODING 223
SWIDTH 928 0
DWIDTH 26 0
BBX 23 20 2 0
BITMAP
3FF000
7FF800
FFFC00
F03C00
F03C00
F03C00
F03C00
F03FF8
F03FFC
F01FFE
F0001E
F0001E
F0001E
F0001E
F0001E
F0003E
F1FFFE
F1FFFC
F1FFFC
F1FFF0
ENDCHAR
STARTCHAR 00E0
ENCODING 224
SWIDTH 857 0
DWIDTH 24 0
BBX 21 23 1 0
BITMAP
01E000
00F000
007000
007800
003C00
001C00
000000
000000
003FC0
003FF0
003FF0
000078
000078
3FFFF8
7FFFF8
FFFFF8
F00078
F00078
F00078
F000F8
FFFFF0
7FFFF0
3FFFC0
ENDCHAR
STARTCHAR 00E1
ENCODING 225
SWIDTH 857 0
DWIDTH 24 0
BBX 21 23 1 0
BITMAP
000F00
001E00
001E00
003C00
003800
007000
000000
000000
003FC0
003FF0
003FF0
000078
000078
3FFFF8
7FFFF8
FFFFF8
F00078
F00078
F00078
F000F8
FFFFF0
7FFFF0
3FFFC0
ENDCHAR
STARTCHAR 00E2
ENCODING 226
SWIDTH 857 0
DWIDTH 24 0
BBX 21 24 1 0
BITMAP
003C00
007C00
00FE00
00FF00
01E780
03C780
03C3C0
0781E0
000000
003FC0
003FF0
003FF0
000078
000078
3FFFF8
7FFFF8
FFFFF8
F00078
F00078
F00078
F000F8
FFFFF0
7FFFF0
3FFFC0
ENDCHAR
STARTCHAR 00E3
ENCODING 227
SWIDTH 857 0
DWIDTH 24 0
BBX 21 21 1 0
BITMAP
07FFE0
07FFE0
07FFE0
000000
000000
000000
003FC0
003FF0
003FF0
000078
000078
3FFFF8
7FFFF8
FFFFF8
F00078
F00078
F00078
F000F8
FFFFF0
7FFFF0
3FFFC0
ENDCHAR
STARTCHAR 00E4
ENCODING 228
SWIDTH 857 0
DWIDTH 24 0
BBX 21 20 1 0
BITMAP
03C780
03C780
03C780
03C780
000000
003FC0
003FF0
003FF0
000078
000078
3FFFF8
7FFFF8
FFFFF8
F00078
F00078
F00078
F000F8
FFFFF0
7FFFF0
3FFFC0
ENDCHAR
STARTCHAR 00E5
ENCODING 229
SWIDTH 857 0
DWIDTH 24 0
BBX 21 24 1 0
BITMAP
00FF00
01FF80
01C380
01C380
01C380
01C380
01FF80
00FF00
000000
003FC0
003FF0
003FF0
000078
000078
3FFFF8
7FFFF8
FFFFF8
F00078
F00078
F00078
F000F8
FFFFF0
7FFFF0
3FFFC0
ENDCHAR
STARTCHAR 00E6
ENCODING 230
SWIDTH 1357 0
DWIDTH 38 0
BBX 36 15 1 0
BITMAP
003FCFFFC0
003FFFFFE0
003FFFFFF0
00007800F0
00007800F0
3FFFF800F0
7FFFFFFFF0
FFFFFFFFF0
F0007FFFF0
F000780000
F000780000
F000FC0000
FFFFFFF000
7FFFFFF000
3FFFCFF000
ENDCHAR
STARTCHAR 00E7
ENCODING 231
SWIDTH 750 0
DWIDTH 21 0
BBX 18 21 2 -6
BITMAP
1FFFC0
7FFFC0
7FFFC0
FFFFC0
F80000
F00000
F00000
F00000
F00000
F00000
F80000
FFFFC0
7FFFC0
7FFFC0
1FFFC0
000000
01E000
01E000
01C000
01C000
01C000
ENDCHAR
STARTCHAR 00E8
ENCODING 232
SWIDTH 785 0
DWIDTH 22 0
BBX 19 23 2 0
BITMAP
0F0000
078000
038000
03C000
01E000
00E000
000000
000000
1FFF80
7FFFC0
7FFFE0
F001E0
F001E0
F001E0
FFFFE0
FFFFE0
FFFFE0
F00000
F00000
F00000
7FE000
7FE000
1FE000
ENDCHAR
STARTCHAR 00E9
ENCODING 233
SWIDTH 785 0
DWIDTH 22 0
BBX 19 23 2 0
BITMAP
003C00
007800
007800
00F000
00E000
01C000
000000
000000
1FFF80
7FFFC0
7FFFE0
F001E0
F001E0
F001E0
FFFFE0
FFFFE0
FFFFE0
F00000
F00000
F00000
7FE000
7FE000
1FE000
ENDCHAR
STARTCHAR 00EA
ENCODING 234
SWIDTH 785 0
DWIDTH 22 0
BBX 19 24 2 0
BITMAP
01E000
03E000
07F000
07F800
0F3C00
1E3C00
1E1E00
3C0F00
000000
1FFF80
7FFFC0
7FFFE0
F001E0
F001E0
F001E0
FFFFE0
FFFFE0
FFFFE0
F00000
F00000
F00000
7FE000
7FE000
1FE000
ENDCHAR
STARTCHAR 00EB
ENCODING 235
SWIDTH 785 0
DWIDTH 22 0
BBX 19 20 2 0
BITMAP
0F1E00
0F1E00
0F1E00
0F1E00
000000
1FFF80
7FFFC0
7FFFE0
F001E0
F001E0
F001E0
FFFFE0
FFFFE0
FFFFE0
F00000
F00000
F00000
7FE000
7FE000
1FE000
ENDCHAR
STARTCHAR 00EC
ENCODING 236
SWIDTH 285 0
DWIDTH 8 0
BBX 7 23 -1 0
BITMAP
F0
78
38
3C
1E
0E
00
00
1E
1E
1E
1E
1E
1E
1E
1E
1E
1E
1E
1E
1E
1E
1E
ENDCHAR
STARTCHAR 00ED
ENCODING 237
SWIDTH 285 0
DWIDTH 8 0
BBX 7 23 2 0
BITMAP
1E
3C
3C
78
70
E0
00
00
F0
F0
F0
F0
F0
F0
F0
F0
F0
F0
F0
F0
F0
F0
F0
ENDCHAR
STARTCHAR 00EE
ENCODING 238
SWIDTH 428 0
DWIDTH 12 0
BBX 14 24 -1 0
BITMAP
0780
0F80
1FC0
1FE0
3CF0
78F0
7878
F03C
0000
0780
0780
0780
0780
0780
0780
0780
0780
0780
0780
0780
0780
0780
0780
0780
ENDCHAR
STARTCHAR 00EF
ENCODING 239
SWIDTH 321 0
DWIDTH 9 0
BBX 11 20 -1 0
BITMAP
F1E0
F1E0
F1E0
F1E0
0000
0F00
0F00
0F00
0F00
0F00
0F00
0F00
0F00
0F00
0F00
0F00
0F00
0F00
0F00
0F00
ENDCHAR
STARTCHAR 00F0
ENCODING 240
SWIDTH 821 0
DWIDTH 23 0
BBX 22 22 2 0
BITMAP
00003C
000078
0FFFF0
0FFFE0
0FFFE0
0001E0
0001E0
0001E0
1FFFE0
7FFFE0
7FFFE0
FFFFE0
F801E0
F001E0
F001E0
F001E0
F001E0
F803E0
FFFFE0
7FFFC0
7FFFC0
1FFF00
ENDCHAR
STARTCHAR 00F1
ENCODING 241
SWIDTH 821 0
DWIDTH 23 0
BBX 19 21 2 0
BITMAP
3FFF00
3FFF00
3FFF00
000000
000000
000000
1FFF00
7FFFC0
7FFFC0
FFFFE0
F803E0
F001E0
F001E0
F001E0
F001E0
F001E0
F001E0
F001E0
F001E0
F001E0
F001E0
ENDCHAR
STARTCHAR 00F2
ENCODING 242
SWIDTH 821 0
DWIDTH 23 0
BBX 19 23 2 0
BITMAP
0F0000
078000
038000
03C000
01E000
00E000
000000
000000
1FFF00
7FFFC0
7FFFC0
FFFFE0
F803E0
F001E0
F001E0
F001E0
F001E0
F001E0
F803E0
FFFFE0
7FFFC0
7FFFC0
1FFF00
ENDCHAR
STARTCHAR 00F3
ENCODING 243
SWIDTH 821 0
DWIDTH 23 0
BBX 19 23 2 0
BITMAP
003C00
007800
007800
00F000
00E000
01C000
000000
000000
1FFF00
7FFFC0
7FFFC0
FFFFE0
F803E0
F001E0
F001E0
F001E0
F001E0
F001E0
F803E0
FFFFE0
7FFFC0
7FFFC0
1FFF00
ENDCHAR
STARTCHAR 00F4
ENCODING 244
SWIDTH 821 0
DWIDTH 23 0
BBX 19 24 2 0
BITMAP
01E000
03E000
07F000
07F800
0F3C00
1E3C00
1E1E00
3C0F00
000000
1FFF00
7FFFC0
7FFFC0
FFFFE0
F803E0
F001E0
F001E0
F001E0
F001E0
F001E0
F803E0
FFFFE0
7FFFC0
7FFFC0
1FFF00
ENDCHAR
STARTCHAR 00F5
ENCODING 245
SWIDTH 821 0
DWIDTH 23 0
BBX 19 21 2 0
BITMAP
3FFF00
3FFF00
3FFF00
000000
000000
000000
1FFF00
7FFFC0
7FFFC0
FFFFE0
F803E0
F001E0
F001E0
F001E0
F001E0
F001E0
F803E0
FFFFE0
7FFFC0
7FFFC0
1FFF00
ENDCHAR
STARTCHAR 00F6
ENCODING 246
SWIDTH 821 0
DWIDTH 23 0
BBX 19 20 2 0
BITMAP
0F1E00
0F1E00
0F1E00
0F1E00
000000
1FFF00
7FFFC0
7FFFC0
FFFFE0
F803E0
F001E0
F001E0
F001E0
F001E0
F001E0
F803E0
FFFFE0
7FFFC0
7FFFC0
1FFF00
ENDCHAR
STARTCHAR 00F7
ENCODING 247
SWIDTH 607 0
DWIDTH 17 0
BBX 13 15 2 2
BITMAP
0F00
0F00
0F00
0F00
0000
0000
FFF8
FFF8
FFF8
0000
0000
0F00
0F00
0F00
0F00
ENDCHAR
STARTCHAR 00F8
ENCODING 248
SWIDTH 821 0
DWIDTH 23 0
BBX 19 21 2 -3
BITMAP
0001E0
0003C0
000780
1FFF80
7FFFC0
7FFFC0
FFFFE0
F839E0
F079E0
F0F1E0
F0E1E0
F1C1E0
F3C1E0
F383E0
FFFFE0
7FFFC0
7FFFC0
3FFF00
3C0000
780000
F00000
ENDCHAR
STARTCHAR 00F9
ENCODING 249
SWIDTH 821 0
DWIDTH 23 0
BBX 19 23 2 0
BITMAP
0F0000
078000
038000
03C000
01E000
00E000
000000
000000
F001E0
F001E0
F001E0
F001E0
F001E0
F001E0
F001E0
F001E0
F001E0
F001E0
F803E0
FFFFE0
7FFFC0
7FFFC0
1FFF00
ENDCHAR
STARTCHAR 00FA
ENCODING 250
SWIDTH 821 0
DWIDTH 23 0
BBX 19 23 2 0
BITMAP
003C00
007800
007800
00F000
00E000
01C000
000000
000000
F001E0
F001E0
F001E0
F001E0
F001E0
F001E0
F001E0
F001E0
F001E0
F001E0
F803E0
FFFFE0
7FFFC0
7FFFC0
1FFF00
ENDCHAR
STARTCHAR 00FB
ENCODING 251
SWIDTH 821 0
DWIDTH 23 0
BBX 19 24 2 0
BITMAP
01E000
03E000
07F000
07F800
0F3C00
1E3C00
1E1E00
3C0F00
000000
F001E0
F001E0
F001E0
F001E0
F001E0
F001E0
F001E0
F001E0
F001E0
F001E0
F803E0
FFFFE0
7FFFC0
7FFFC0
1FFF00
ENDCHAR
STARTCHAR 00FC
ENCODING 252
SWIDTH 821 0
DWIDTH 23 0
BBX 19 20 2 0
BITMAP
0F1E00
0F1E00
0F1E00
0F1E00
000000
F001E0
F001E0
F001E0
F001E0
F001E0
F001E0
F001E0
F001E0
F001E0
F001E0
F803E0
FFFFE0
7FFFC0
7FFFC0
1FFF00
ENDCHAR
STARTCHAR 00FD
ENCODING 253
SWIDTH 821 0
DWIDTH 23 0
BBX 19 28 2 -5
BITMAP
003C00
007800
007800
00F000
00E000
01C000
000000
000000
F001E0
F001E0
F001E0
F001E0
F001E0
F001E0
F001E0
F001E0
F001E0
F001E0
FFFFE0
7FFFE0
7FFFE0
1FFFE0
0001E0
0001E0
00FFE0
00FFE0
00FFC0
00FF80
ENDCHAR
STARTCHAR 00FE
ENCODING 254
SWIDTH 821 0
DWIDTH 23 0
BBX 19 25 2 -5
BITMAP
F00000
F00000
F00000
F00000
F00000
FFFF00
FFFFC0
FFFFC0
FFFFE0
F003E0
F001E0
F001E0
F001E0
F001E0
F001E0
F003E0
FFFFE0
FFFFC0
FFFFC0
FFFF00
F00000
F00000
F00000
F00000
F00000
ENDCHAR
STARTCHAR 00FF
ENCODING 255
SWIDTH 821 0
DWIDTH 23 0
BBX 19 25 2 -5
BITMAP
0F1E00
0F1E00
0F1E00
0F1E00
000000
F001E0
F001E0
F001E0
F001E0
F001E0
F001E0
F001E0
F001E0
F001E0
F001E0
FFFFE0
7FFFE0
7FFFE0
1FFFE0
0001E0
0001E0
00FFE0
00FFE0
00FFC0
00FF80
ENDCHAR
STARTCHAR 0100
ENCODING 256
SWIDTH 1035 0
DWIDTH 29 0
BBX 27 25 1 0
BITMAP
03FFF000
03FFF000
03FFF000
00000000
00000000
000E0000
001F0000
003F8000
007FC000
007FC000
00FBE000
01F1F000
01F1F000
03E0F800
03C07800
07C07C00
0F803E00
0FFFFE00
1FFFFF00
1FFFFF00
3FFFFF80
7E000FC0
7C0007C0
F80003E0
F00003E0
ENDCHAR
STARTCHAR 0101
ENCODING 257
SWIDTH 857 0
DWIDTH 24 0
BBX 21 21 1 0
BITMAP
07FFE0
07FFE0
07FFE0
000000
000000
000000
003FC0
003FF0
003FF0
000078
000078
3FFFF8
7FFFF8
FFFFF8
F00078
F00078
F00078
F000F8
FFFFF0
7FFFF0
3FFFC0
ENDCHAR
STARTCHAR 0102
ENCODING 258
SWIDTH 1035 0
DWIDTH 29 0
BBX 27 28 1 0
BITMAP
00E07000
00E07000
00E07000
00E07000
00FFF000
007FE000
003FC000
00000000
000E0000
001F0000
003F8000
007FC000
007FC000
00FBE000
01F1F000
01F1F000
03E0F800
03C07800
07C07C00
0F803E00
0FFFFE00
1FFFFF00
1FFFFF00
3FFFFF80
7E000FC0
7C0007C0
F80003E0
F00003E0
ENDCHAR
STARTCHAR 0103
ENCODING 259
SWIDTH 857 0
DWIDTH 24 0
BBX 21 24 1 0
BITMAP
0381C0
0381C0
0381C0
0381C0
03FFC0
01FF80
00FF00
000000
000000
003FC0
003FF0
003FF0
000078
000078
3FFFF8
7FFFF8
FFFFF8
F00078
F00078
F00078
F000F8
FFFFF0
7FFFF0
3FFFC0
ENDCHAR
STARTCHAR 0104
ENCODING 260
SWIDTH 1071 0
DWIDTH 30 0
BBX 30 26 1 -6
BITMAP
000F0000
001F8000
003F8000
003FC000
007FE000
00FBE000
00F1F000
01F1F000
03E0F800
03C07C00
07C07C00
07803E00
0FFFFF00
1FFFFF00
1FFFFF80
3FFFFFC0
3E0007C0
7C0007E0
F80003E0
F80001F0
000001C0
00000780
00000780
000007FC
000007FC
000003FC
ENDCHAR
STARTCHAR 0105
ENCODING 261
SWIDTH 857 0
DWIDTH 24 0
BBX 21 21 1 -6
BITMAP
003FC0
003FF0
003FF0
000078
000078
3FFFF8
7FFFF8
FFFFF8
F00078
F00078
F00078
F000F8
FFFFF0
7FFFF0
3FFF80
007000
01E000
01E000
01FF00
01FF00
00FF00
ENDCHAR
STARTCHAR 0106
ENCODING 262
SWIDTH 821 0
DWIDTH 23 0
BBX 20 27 2 0
BITMAP
003C00
007800
007800
00F000
00E000
01C000
000000
000000
1FFFF0
7FFFF0
7FFFF0
FFFFF0
F80000
F00000
F00000
F00000
F00000
F00000
F00000
F00000
F00000
F00000
F80000
FFFFF0
7FFFF0
7FFFF0
1FFFF0
ENDCHAR
STARTCHAR 0107
ENCODING 263
SWIDTH 750 0
DWIDTH 21 0
BBX 18 23 2 0
BITMAP
007800
00F000
00F000
01E000
01C000
038000
000000
000000
1FFFC0
7FFFC0
7FFFC0
FFFFC0
F80000
F00000
F00000
F00000
F00000
F00000
F80000
FFFFC0
7FFFC0
7FFFC0
1FFFC0
ENDCHAR
STARTCHAR 010A
ENCODING 266
SWIDTH 821 0
DWIDTH 23 0
BBX 20 24 2 0
BITMAP
007800
007800
007800
007800
000000
1FFFF0
7FFFF0
7FFFF0
FFFFF0
F80000
F00000
F00000
F00000
F00000
F00000
F00000
F00000
F00000
F00000
F80000
FFFFF0
7FFFF0
7FFFF0
1FFFF0
ENDCHAR
STARTCHAR 010B
ENCODING 267
SWIDTH 750 0
DWIDTH 21 0
BBX 18 20 2 0
BITMAP
00F000
00F000
00F000
00F000
000000
1FFFC0
7FFFC0
7FFFC0
FFFFC0
F80000
F00000
F00000
F00000
F00000
F00000
F80000
FFFFC0
7FFFC0
7FFFC0
1FFFC0
ENDCHAR
STARTCHAR 010C
ENCODING 268
SWIDTH 821 0
DWIDTH 23 0
BBX 20 28 2 0
BITMAP
0F03C0
078780
078F00
03CF00
01FE00
01FC00
00FC00
007800
000000
1FFFF0
7FFFF0
7FFFF0
FFFFF0
F80000
F00000
F00000
F00000
F00000
F00000
F00000
F00000
F00000
F00000
F80000
FFFFF0
7FFFF0
7FFFF0
1FFFF0
ENDCHAR
STARTCHAR 010D
ENCODING 269
SWIDTH 750 0
DWIDTH 21 0
BBX 18 24 2 0
BITMAP
1E0780
0F0F00
0F1E00
079E00
03FC00
03F800
01F800
00F000
000000
1FFFC0
7FFFC0
7FFFC0
FFFFC0
F80000
F00000
F00000
F00000
F00000
F00000
F80000
FFFFC0
7FFFC0
7FFFC0
1FFFC0
ENDCHAR
STARTCHAR 010E
ENCODING 270
SWIDTH 928 0
DWIDTH 26 0
BBX 22 28 2 0
BITMAP
1E0780
0F0F00
0F1E00
079E00
03FC00
03F800
01F800
00F000
000000
FFFFE0
FFFFF8
FFFFF8
FFFFFC
F0007C
F0003C
F0003C
F0003C
F0003C
F0003C
F0003C
F0003C
F0003C
F0003C
F0007C
FFFFFC
FFFFF8
FFFFF8
FFFFE0
ENDCHAR
STARTCHAR 010F
ENCODING 271
SWIDTH 1000 0
DWIDTH 28 0
BBX 27 20 1 0
BITMAP
0000F1E0
0000F1C0
0000F1C0
0000F3C0
0000F3C0
1FFFF380
3FFFF380
7FFFF000
FFFFF000
F800F000
F000F000
F000F000
F000F000
F000F000
F000F000
F801F000
FFFFF000
7FFFE000
7FFFE000
1FFF8000
ENDCHAR
STARTCHAR 0110
ENCODING 272
SWIDTH 964 0
DWIDTH 27 0
BBX 25 19 0 0
BITMAP
3FFFF800
3FFFFE00
3FFFFF00
3FFFFF80
3C000F80
3C000780
3C000780
3C000780
FFFC0780
FFFC0780
FFFC0780
3C000780
3C000780
3C000780
3C000F80
3FFFFF80
3FFFFF00
3FFFFE00
3FFFFC00
ENDCHAR
STARTCHAR 0111
ENCODING 273
SWIDTH 821 0
DWIDTH 23 0
BBX 21 20 1 0
BITMAP
0000F0
01FFF8
01FFF8
01FFF8
0000F0
1FFFF0
3FFFF0
7FFFF0
FFFFF0
F800F0
F000F0
F000F0
F000F0
F000F0
F000F0
F801F0
FFFFF0
7FFFE0
7FFFE0
1FFF80
ENDCHAR
STARTCHAR 0112
ENCODING 274
SWIDTH 821 0
DWIDTH 23 0
BBX 20 25 2 0
BITMAP
1FFF80
1FFF80
1FFF80
000000
000000
000000
1FF000
7FF000
7FF000
FFF000
F80000
F00000
F00000
FFFFF0
FFFFF0
FFFFF0
FFFFF0
F00000
F00000
F00000
F80000
FFFFF0
7FFFF0
7FFFF0
1FFFF0
ENDCHAR
STARTCHAR 0113
ENCODING 275
SWIDTH 785 0
DWIDTH 22 0
BBX 19 21 2 0
BITMAP
3FFF00
3FFF00
3FFF00
000000
000000
000000
1FFF80
7FFFC0
7FFFE0
F001E0
F001E0
F001E0
FFFFE0
FFFFE0
FFFFE0
F00000
F00000
F00000
7FE000
7FE000
1FE000
ENDCHAR
STARTCHAR 0114
ENCODING 276
SWIDTH 821 0
DWIDTH 23 0
BBX 20 28 2 0
BITMAP
070380
070380
070380
070380
07FF80
03FF00
01FE00
000000
000000
1FF000
7FF000
7FF000
FFF000
F80000
F00000
F00000
FFFFF0
FFFFF0
FFFFF0
FFFFF0
F00000
F00000
F00000
F80000
FFFFF0
7FFFF0
7FFFF0
1FFFF0
ENDCHAR
STARTCHAR 0115
ENCODING 277
SWIDTH 785 0
DWIDTH 22 0
BBX 19 24 2 0
BITMAP
0E0700
0E0700
0E0700
0E0700
0FFF00
07FE00
03FC00
000000
000000
1FFF80
7FFFC0
7FFFE0
F001E0
F001E0
F001E0
FFFFE0
FFFFE0
FFFFE0
F00000
F00000
F00000
7FE000
7FE000
1FE000
ENDCHAR
STARTCHAR 0116
ENCODING 278
SWIDTH 821 0
DWIDTH 23 0
BBX 20 24 2 0
BITMAP
007800
007800
007800
007800
000000
1FF000
7FF000
7FF000
FFF000
F80000
F00000
F00000
FFFFF0
FFFFF0
FFFFF0
FFFFF0
F00000
F00000
F00000
F80000
FFFFF0
7FFFF0
7FFFF0
1FFFF0
ENDCHAR
STARTCHAR 0117
ENCODING 279
SWIDTH 785 0
DWIDTH 22 0
BBX 19 20 2 0
BITMAP
00F000
00F000
00F000
00F000
000000
1FFF80
7FFFC0
7FFFE0
F001E0
F001E0
F001E0
FFFFE0
FFFFE0
FFFFE0
F00000
F00000
F00000
7FE000
7FE000
1FE000
ENDCHAR
STARTCHAR 0118
ENCODING 280
SWIDTH 857 0
DWIDTH 24 0
BBX 22 25 2 -6
BITMAP
1FF000
7FF000
7FF000
FFF000
F80000
F00000
F00000
FFFFF0
FFFFF0
FFFFF0
FFFFF0
F00000
F00000
F00000
F80000
FFFFF0
7FFFF0
7FFFF0
1FFFF0
0001C0
000780
000780
0007FC
0007FC
0003FC
ENDCHAR
STARTCHAR 0119
ENCODING 281
SWIDTH 785 0
DWIDTH 22 0
BBX 19 21 2 -6
BITMAP
1FFF80
7FFFC0
7FFFE0
F001E0
F001E0
F001E0
FFFFE0
FFFFE0
FFFFE0
F00000
F00000
F00000
7FE000
7FE000
1FE000
038000
0F0000
0F0000
0FF800
0FF800
07F800
ENDCHAR
STARTCHAR 011A
ENCODING 282
SWIDTH 821 0
DWIDTH 23 0
BBX 20 28 2 0
BITMAP
0F03C0
078780
078F00
03CF00
01FE00
01FC00
00FC00
007800
000000
1FF000
7FF000
7FF000
FFF000
F80000
F00000
F00000
FFFFF0
FFFFF0
FFFFF0
FFFFF0
F00000
F00000
F00000
F80000
FFFFF0
7FFFF0
7FFFF0
1FFFF0
ENDCHAR
STARTCHAR 011B
ENCODING 283
SWIDTH 785 0
DWIDTH 22 0
BBX 19 24 2 0
BITMAP
3C0F00
1E1E00
1E3C00
0F3C00
07F800
07F000
03F000
01E000
000000
1FFF80
7FFFC0
7FFFE0
F001E0
F001E0
F001E0
FFFFE0
FFFFE0
FFFFE0
F00000
F00000
F00000
7FE000
7FE000
1FE000
ENDCHAR
STARTCHAR 011E
ENCODING 286
SWIDTH 857 0
DWIDTH 24 0
BBX 21 28 2 0
BITMAP
070380
070380
070380
070380
07FF80
03FF00
01FE00
000000
000000
1FF000
7FF000
7FF000
FFF000
F80000
F00000
F00000
F00078
F00078
F00078
F00078
F00078
F00078
F00078
F800F8
FFFFF8
7FFFF0
7FFFE0
1FFFC0
ENDCHAR
STARTCHAR 011F
ENCODING 287
SWIDTH 785 0
DWIDTH 22 0
BBX 20 29 1 -5
BITMAP
070380
070380
070380
070380
07FF80
03FF00
01FE00
000000
000000
1FFF80
7FFFE0
FFFFE0
FFFFF0
F801F0
F000F0
F000F0
F000F0
F000F0
F000F0
FFFFF0
7FFFF0
1FFFF0
0000F0
0000F0
0000F0
00FFF0
00FFF0
00FFE0
00FFC0
ENDCHAR
STARTCHAR 0120
ENCODING 288
SWIDTH 857 0
DWIDTH 24 0
BBX 21 24 2 0
BITMAP
007800
007800
007800
007800
000000
1FF000
7FF000
7FF000
FFF000
F80000
F00000
F00000
F00078
F00078
F00078
F00078
F00078
F00078
F00078
F800F8
FFFFF8
7FFFF0
7FFFE0
1FFFC0
ENDCHAR
STARTCHAR 0121
ENCODING 289
SWIDTH 785 0
DWIDTH 22 0
BBX 20 25 1 -5
BITMAP
007800
007800
007800
007800
000000
1FFF80
7FFFE0
FFFFE0
FFFFF0
F801F0
F000F0
F000F0
F000F0
F000F0
F000F0
FFFFF0
7FFFF0
1FFFF0
0000F0
0000F0
0000F0
00FFF0
00FFF0
00FFE0
00FFC0
ENDCHAR
STARTCHAR 0122
ENCODING 290
SWIDTH 857 0
DWIDTH 24 0
BBX 21 25 2 -6
BITMAP
1FF000
7FF000
7FF000
FFF000
F80000
F00000
F00000
F00078
F00078
F00078
F00078
F00078
F00078
F00078
F800F8
FFFFF8
7FFFF0
7FFFE0
1FFFC0
000000
007800
007800
007000
007000
007000
ENDCHAR
STARTCHAR 0123
ENCODING 291
SWIDTH 785 0
DWIDTH 22 0
BBX 20 27 1 -5
BITMAP
003800
003800
003800
007800
007800
000000
000000
1FFF80
7FFFE0
FFFFE0
FFFFF0
F801F0
F000F0
F000F0
F000F0
F000F0
F000F0
FFFFF0
7FFFF0
1FFFF0
0000F0
0000F0
0000F0
00FFF0
00FFF0
00FFE0
00FFC0
ENDCHAR
STARTCHAR 0126
ENCODING 294
SWIDTH 928 0
DWIDTH 26 0
BBX 22 19 2 0
BITMAP
F0003C
F0003C
FFFFFC
FFFFFC
FFFFFC
F0003C
F0003C
F0003C
FFFFFC
FFFFFC
FFFFFC
FFFFFC
F0003C
F0003C
F0003C
F0003C
F0003C
F0003C
F0003C
ENDCHAR
STARTCHAR 0127
ENCODING 295
SWIDTH 821 0
DWIDTH 23 0
BBX 20 20 1 0
BITMAP
780000
FFFC00
FFFC00
FFFC00
780000
7FFF80
7FFFE0
7FFFE0
7FFFF0
7801F0
7800F0
7800F0
7800F0
7800F0
7800F0
7800F0
7800F0
7800F0
7800F0
7800F0
ENDCHAR
STARTCHAR 012A
ENCODING 298
SWIDTH 285 0
DWIDTH 8 0
BBX 14 25 -3 0
BITMAP
FFFC
FFFC
FFFC
0000
0000
0000
0780
0780
0780
0780
0780
0780
0780
0780
0780
0780
0780
0780
0780
0780
0780
0780
0780
0780
0780
ENDCHAR
STARTCHAR 012B
ENCODING 299
SWIDTH 428 0
DWIDTH 12 0
BBX 14 21 -1 0
BITMAP
FFFC
FFFC
FFFC
0000
0000
0000
0780
0780
0780
0780
0780
0780
0780
0780
0780
0780
0780
0780
0780
0780
0780
ENDCHAR
STARTCHAR 012C
ENCODING 300
SWIDTH 285 0
DWIDTH 8 0
BBX 12 28 -2 0
BITMAP
E070
E070
E070
E070
FFF0
7FE0
3FC0
0000
0000
0F00
0F00
0F00
0F00
0F00
0F00
0F00
0F00
0F00
0F00
0F00
0F00
0F00
0F00
0F00
0F00
0F00
0F00
0F00
ENDCHAR
STARTCHAR 012D
ENCODING 301
SWIDTH 285 0
DWIDTH 8 0
BBX 12 24 -1 0
BITMAP
E070
E070
E070
E070
FFF0
7FE0
3FC0
0000
0000
1E00
1E00
1E00
1E00
1E00
1E00
1E00
1E00
1E00
1E00
1E00
1E00
1E00
1E00
1E00
ENDCHAR
STARTCHAR 012E
ENCODING 302
SWIDTH 285 0
DWIDTH 8 0
BBX 9 25 -1 -6
BITMAP
1E00
1E00
1E00
1E00
1E00
1E00
1E00
1E00
1E00
1E00
1E00
1E00
1E00
1E00
1E00
1E00
1E00
1E00
1E00
3800
F000
F000
FF80
FF80
7F80
ENDCHAR
STARTCHAR 012F
ENCODING 303
SWIDTH 285 0
DWIDTH 8 0
BBX 9 26 -1 -6
BITMAP
1E00
1E00
1E00
1E00
0000
1E00
1E00
1E00
1E00
1E00
1E00
1E00
1E00
1E00
1E00
1E00
1E00
1E00
1E00
1E00
3800
F000
F000
FF80
FF80
7F80
ENDCHAR
STARTCHAR 0130
ENCODING 304
SWIDTH 285 0
DWIDTH 8 0
BBX 4 24 2 0
BITMAP
F0
F0
F0
F0
00
F0
F0
F0
F0
F0
F0
F0
F0
F0
F0
F0
F0
F0
F0
F0
F0
F0
F0
F0
ENDCHAR
STARTCHAR 0131
ENCODING 305
SWIDTH 285 0
DWIDTH 8 0
BBX 4 15 2 0
BITMAP
F0
F0
F0
F0
F0
F0
F0
F0
F0
F0
F0
F0
F0
F0
F0
ENDCHAR
STARTCHAR 0132
ENCODING 306
SWIDTH 785 0
DWIDTH 22 0
BBX 19 19 2 0
BITMAP
F001E0
F001E0
F001E0
F001E0
F001E0
F001E0
F001E0
F001E0
F001E0
F001E0
F001E0
F001E0
F001E0
F001E0
F003E0
F1FFE0
F1FFC0
F1FFC0
F1FF00
ENDCHAR
STARTCHAR 0133
ENCODING 307
SWIDTH 571 0
DWIDTH 16 0
BBX 12 25 2 -5
BITMAP
F0F0
F0F0
F0F0
F0F0
0000
F0F0
F0F0
F0F0
F0F0
F0F0
F0F0
F0F0
F0F0
F0F0
F0F0
F0F0
F0F0
F0F0
F0F0
F0F0
01F0
0FF0
0FE0
0FC0
0F80
ENDCHAR
STARTCHAR 0136
ENCODING 310
SWIDTH 785 0
DWIDTH 22 0
BBX 20 25 2 -6
BITMAP
F003F0
F007C0
F00F80
F03F00
F07E00
F0FC00
F1F000
F3E000
F7C000
FFC000
F7E000
F3F000
F1F800
F0FC00
F07E00
F01F00
F00FC0
F007E0
F003F0
000000
01E000
01E000
01C000
01C000
01C000
ENDCHAR
STARTCHAR 0137
ENCODING 311
SWIDTH 714 0
DWIDTH 20 0
BBX 18 26 2 -6
BITMAP
F00000
F00000
F00000
F00000
F00000
F00F80
F01F00
F07E00
F0FC00
F1F000
F3E000
FFC000
FF8000
F7C000
F3F000
F1F800
F07C00
F03E00
F01F80
F00FC0
000000
03C000
03C000
038000
038000
038000
ENDCHAR
STARTCHAR 0139
ENCODING 313
SWIDTH 750 0
DWIDTH 21 0
BBX 19 27 2 0
BITMAP
1E0000
3C0000
3C0000
780000
700000
E00000
000000
000000
F00000
F00000
F00000
F00000
F00000
F00000
F00000
F00000
F00000
F00000
F00000
F00000
F00000
F00000
F80000
FFFFE0
7FFFE0
7FFFE0
1FFFE0
ENDCHAR
STARTCHAR 013A
ENCODING 314
SWIDTH 285 0
DWIDTH 8 0
BBX 7 27 2 0
BITMAP
1E
3C
3C
78
70
E0
00
F0
F0
F0
F0
F0
F0
F0
F0
F0
F0
F0
F0
F0
F0
F0
F0
F0
F0
F0
F0
ENDCHAR
STARTCHAR 013B
ENCODING 315
SWIDTH 750 0
DWIDTH 21 0
BBX 19 25 2 -6
BITMAP
F00000
F00000
F00000
F00000
F00000
F00000
F00000
F00000
F00000
F00000
F00000
F00000
F00000
F00000
F80000
FFFFE0
7FFFE0
7FFFE0
1FFFE0
000000
00F000
00F000
00E000
00E000
00E000
ENDCHAR
STARTCHAR 013C
ENCODING 316
SWIDTH 285 0
DWIDTH 8 0
BBX 4 26 2 -6
BITMAP
F0
F0
F0
F0
F0
F0
F0
F0
F0
F0
F0
F0
F0
F0
F0
F0
F0
F0
F0
F0
00
F0
F0
E0
E0
E0
ENDCHAR
STARTCHAR 013D
ENCODING 317
SWIDTH 750 0
DWIDTH 21 0
BBX 19 20 2 0
BITMAP
003C00
F03800
F03800
F07800
F07800
F07000
F07000
F00000
F00000
F00000
F00000
F00000
F00000
F00000
F00000
F80000
FFFFE0
7FFFE0
7FFFE0
1FFFE0
ENDCHAR
STARTCHAR 013E
ENCODING 318
SWIDTH 428 0
DWIDTH 12 0
BBX 10 20 2 0
BITMAP
F3C0
F380
F380
F780
F780
F700
F700
F000
F000
F000
F000
F000
F000
F000
F000
F000
F000
F000
F000
F000
ENDCHAR
STARTCHAR 013F
ENCODING 319
SWIDTH 750 0
DWIDTH 21 0
BBX 19 19 2 0
BITMAP
F00000
F00000
F00000
F00000
F00000
F00000
F07800
F07800
F07800
F07800
F00000
F00000
F00000
F00000
F80000
FFFFE0
7FFFE0
7FFFE0
1FFFE0
ENDCHAR
STARTCHAR 0140
ENCODING 320
SWIDTH 428 0
DWIDTH 12 0
BBX 10 20 2 0
BITMAP
F000
F000
F000
F000
F000
F000
F000
F000
F3C0
F3C0
F3C0
F3C0
F000
F000
F000
F000
F000
F000
F000
F000
ENDCHAR
STARTCHAR 0141
ENCODING 321
SWIDTH 785 0
DWIDTH 22 0
BBX 21 19 0 0
BITMAP
3C0000
3C0000
3C0600
3FFE00
7FFE00
FFFC00
FF0000
FC0000
3C0000
3C0000
3C0000
3C0000
3C0000
3C0000
3E0000
3FFFF8
1FFFF8
1FFFF8
07FFF8
ENDCHAR
STARTCHAR 0142
ENCODING 322
SWIDTH 321 0
DWIDTH 9 0
BBX 8 20 1 0
BITMAP
3C
3C
3C
3C
3C
7F
FF
FF
FC
3C
3C
3C
3C
3C
3C
3C
3C
3C
3C
3C
ENDCHAR
STARTCHAR 0143
ENCODING 323
SWIDTH 928 0
DWIDTH 26 0
BBX 22 27 2 0
BITMAP
000F00
001E00
001E00
003C00
003800
007000
000000
700000
F8003C
FC003C
FE003C
FF003C
FF803C
F7C03C
F3E03C
F1F03C
F0F83C
F07C3C
F03E3C
F01F3C
F00FBC
F007FC
F003FC
F001FC
F000FC
F0007C
F0003C
ENDCHAR
STARTCHAR 0144
ENCODING 324
SWIDTH 821 0
DWIDTH 23 0
BBX 19 23 2 0
BITMAP
003C00
007800
007800
00F000
00E000
01C000
000000
000000
1FFF00
7FFFC0
7FFFC0
FFFFE0
F803E0
F001E0
F001E0
F001E0
F001E0
F001E0
F001E0
F001E0
F001E0
F001E0
F001E0
ENDCHAR
STARTCHAR 0145
ENCODING 325
SWIDTH 928 0
DWIDTH 26 0
BBX 22 26 2 -6
BITMAP
700000
F8003C
FC003C
FE003C
FF003C
FF803C
F7C03C
F3E03C
F1F03C
F0F83C
F07C3C
F03E3C
F01F3C
F00FBC
F007FC
F003FC
F001FC
F000FC
F0007C
F0003C
000000
007800
007800
007000
007000
007000
ENDCHAR
STARTCHAR 0146
ENCODING 326
SWIDTH 821 0
DWIDTH 23 0
BBX 19 21 2 -6
BITMAP
1FFF00
7FFFC0
7FFFC0
FFFFE0
F803E0
F001E0
F001E0
F001E0
F001E0
F001E0
F001E0
F001E0
F001E0
F001E0
F001E0
000000
00F000
00F000
00E000
00E000
00E000
ENDCHAR
STARTCHAR 0147
ENCODING 327
SWIDTH 928 0
DWIDTH 26 0
BBX 22 28 2 0
BITMAP
0F03C0
078780
078F00
03CF00
01FE00
01FC00
00FC00
007800
700000
F8003C
FC003C
FE003C
FF003C
FF803C
F7C03C
F3E03C
F1F03C
F0F83C
F07C3C
F03E3C
F01F3C
F00FBC
F007FC
F003FC
F001FC
F000FC
F0007C
F0003C
ENDCHAR
STARTCHAR 0148
ENCODING 328
SWIDTH 821 0
DWIDTH 23 0
BBX 19 24 2 0
BITMAP
1E0780
0F0F00
0F1E00
079E00
03FC00
03F800
01F800
00F000
000000
1FFF00
7FFFC0
7FFFC0
FFFFE0
F803E0
F001E0
F001E0
F001E0
F001E0
F001E0
F001E0
F001E0
F001E0
F001E0
F001E0
ENDCHAR
STARTCHAR 014A
ENCODING 330
SWIDTH 928 0
DWIDTH 26 0
BBX 22 26 2 -6
BITMAP
700000
F8003C
FC003C
FE003C
FF003C
FF803C
FFC03C
F7E03C
F3F03C
F1F83C
F0FC3C
F07E3C
F03F3C
F01FBC
F00FFC
F007FC
F003FC
F001FC
F000FC
F0007C
00003C
00003C
0003FC
0003F8
0003F8
0003E0
ENDCHAR
STARTCHAR 014B
ENCODING 331
SWIDTH 821 0
DWIDTH 23 0
BBX 19 21 2 -6
BITMAP
1FFF00
7FFFC0
7FFFC0
FFFFE0
F803E0
F001E0
F001E0
F001E0
F001E0
F001E0
F001E0
F001E0
F001E0
F001E0
F001E0
0001E0
0003E0
001FE0
001FC0
001FC0
001F00
ENDCHAR
STARTCHAR 014C
ENCODING 332
SWIDTH 892 0
DWIDTH 25 0
BBX 21 25 2 0
BITMAP
1FFF80
1FFF80
1FFF80
000000
000000
000000
1FFFC0
7FFFF0
7FFFF0
FFFFF8
F800F8
F00078
F00078
F00078
F00078
F00078
F00078
F00078
F00078
F00078
F800F8
FFFFF8
7FFFF0
7FFFF0
1FFFC0
ENDCHAR
STARTCHAR 014D
ENCODING 333
SWIDTH 821 0
DWIDTH 23 0
BBX 19 21 2 0
BITMAP
3FFF00
3FFF00
3FFF00
000000
000000
000000
1FFF00
7FFFC0
7FFFC0
FFFFE0
F803E0
F001E0
F001E0
F001E0
F001E0
F001E0
F803E0
FFFFE0
7FFFC0
7FFFC0
1FFF00
ENDCHAR
STARTCHAR 014E
ENCODING 334
SWIDTH 892 0
DWIDTH 25 0
BBX 21 28 2 0
BITMAP
070380
070380
070380
070380
07FF80
03FF00
01FE00
000000
000000
1FFFC0
7FFFF0
7FFFF0
FFFFF8
F800F8
F00078
F00078
F00078
F00078
F00078
F00078
F00078
F00078
F00078
F800F8
FFFFF8
7FFFF0
7FFFF0
1FFFC0
ENDCHAR
STARTCHAR 014F
ENCODING 335
SWIDTH 821 0
DWIDTH 23 0
BBX 19 24 2 0
BITMAP
0E0700
0E0700
0E0700
0E0700
0FFF00
07FE00
03FC00
000000
000000
1FFF00
7FFFC0
7FFFC0
FFFFE0
F803E0
F001E0
F001E0
F001E0
F001E0
F001E0
F803E0
FFFFE0
7FFFC0
7FFFC0
1FFF00
ENDCHAR
STARTCHAR 0150
ENCODING 336
SWIDTH 892 0
DWIDTH 25 0
BBX 21 27 2 0
BITMAP
01E1E0
03C3C0
03C780
078780
070F00
0E0E00
000000
000000
1FFFC0
7FFFF0
7FFFF0
FFFFF8
F800F8
F00078
F00078
F00078
F00078
F00078
F00078
F00078
F00078
F00078
F800F8
FFFFF8
7FFFF0
7FFFF0
1FFFC0
ENDCHAR
STARTCHAR 0151
ENCODING 337
SWIDTH 821 0
DWIDTH 23 0
BBX 19 23 2 0
BITMAP
03C3C0
078780
078F00
0F0F00
0E1E00
1C1C00
000000
000000
1FFF00
7FFFC0
7FFFC0
FFFFE0
F803E0
F001E0
F001E0
F001E0
F001E0
F001E0
F803E0
FFFFE0
7FFFC0
7FFFC0
1FFF00
ENDCHAR
STARTCHAR 0152
ENCODING 338
SWIDTH 1428 0
DWIDTH 40 0
BBX 37 19 2 0
BITMAP
1FFFCFF800
7FFFFFF800
7FFFFFF800
FFFFFFF800
F800FC0000
F000780000
F000780000
F0007FFFF8
F0007FFFF8
F0007FFFF8
F0007FFFF8
F000780000
F000780000
F000780000
F800FC0000
FFFFFFFFF8
7FFFFFFFF8
7FFFFFFFF8
1FFFCFFFF8
ENDCHAR
STARTCHAR 0153
ENCODING 339
SWIDTH 1321 0
DWIDTH 37 0
BBX 34 15 2 0
BITMAP
1FFF3FFF00
7FFFFFFF80
7FFFFFFFC0
FFFFE003C0
F803E003C0
F001E003C0
F001FFFFC0
F001FFFFC0
F001FFFFC0
F001E00000
F803E00000
FFFFE00000
7FFFFFC000
7FFFFFC000
1FFF3FC000
ENDCHAR
STARTCHAR 0154
ENCODING 340
SWIDTH 892 0
DWIDTH 25 0
BBX 22 27 2 0
BITMAP
000F00
001E00
001E00
003C00
003800
007000
000000
000000
FFFFE0
FFFFF8
FFFFF8
FFFFFC
F0007C
F0003C
F0003C
F0003C
F0007C
FFFFF8
FFFFF8
FFFFE0
F7F000
F1FC00
F0FE00
F03F80
F01FC0
F007F0
F003FC
ENDCHAR
STARTCHAR 0155
ENCODING 341
SWIDTH 428 0
DWIDTH 12 0
BBX 10 23 2 0
BITMAP
03C0
0780
0780
0F00
0E00
1C00
0000
0000
1FC0
3FC0
7FC0
FFC0
F800
F000
F000
F000
F000
F000
F000
F000
F000
F000
F000
ENDCHAR
STARTCHAR 0156
ENCODING 342
SWIDTH 892 0
DWIDTH 25 0
BBX 22 25 2 -6
BITMAP
FFFFE0
FFFFF8
FFFFF8
FFFFFC
F0007C
F0003C
F0003C
F0003C
F0007C
FFFFF8
FFFFF8
FFFFE0
F7F000
F1FC00
F0FE00
F03F80
F01FC0
F007F0
F003FC
000000
007800
007800
007000
007000
007000
ENDCHAR
STARTCHAR 0157
ENCODING 343
SWIDTH 428 0
DWIDTH 12 0
BBX 10 21 2 -6
BITMAP
1FC0
3FC0
7FC0
FFC0
F800
F000
F000
F000
F000
F000
F000
F000
F000
F000
F000
0000
F000
F000
E000
E000
E000
ENDCHAR
STARTCHAR 0158
ENCODING 344
SWIDTH 892 0
DWIDTH 25 0
BBX 22 28 2 0
BITMAP
1E0780
0F0F00
0F1E00
079E00
03FC00
03F800
01F800
00F000
000000
FFFFE0
FFFFF8
FFFFF8
FFFFFC
F0007C
F0003C
F0003C
F0003C
F0007C
FFFFF8
FFFFF8
FFFFE0
F7F000
F1FC00
F0FE00
F03F80
F01FC0
F007F0
F003FC
ENDCHAR
STARTCHAR 0159
ENCODING 345
SWIDTH 428 0
DWIDTH 12 0
BBX 14 24 0 0
BITMAP
F03C
7878
78F0
3CF0
1FE0
1FC0
0FC0
0780
0000
07F0
0FF0
1FF0
3FF0
3E00
3C00
3C00
3C00
3C00
3C00
3C00
3C00
3C00
3C00
3C00
ENDCHAR
STARTCHAR 015A
ENCODING 346
SWIDTH 821 0
DWIDTH 23 0
BBX 21 27 1 0
BITMAP
001E00
003C00
003C00
007800
007000
00E000
000000
000000
3FE000
7FE000
FFE000
FFE000
F00000
F00000
F00000
FFFFC0
FFFFF0
7FFFF8
3FFFF8
000078
000078
000078
000078
FFFFF8
FFFFF8
FFFFF0
FFFFC0
ENDCHAR
STARTCHAR 015B
ENCODING 347
SWIDTH 714 0
DWIDTH 20 0
BBX 18 23 1 0
BITMAP
003C00
007800
007800
00F000
00E000
01C000
000000
000000
7FC000
FFC000
FFC000
F00000
F00000
F00000
FFFF00
FFFF80
7FFFC0
0003C0
0003C0
FFFFC0
FFFFC0
FFFFC0
FFFF00
ENDCHAR
STARTCHAR 015E
ENCODING 350
SWIDTH 821 0
DWIDTH 23 0
BBX 21 25 1 -6
BITMAP
3FE000
7FE000
FFE000
FFE000
F00000
F00000
F00000
FFFFC0
FFFFF0
7FFFF8
3FFFF8
000078
000078
000078
000078
FFFFF8
FFFFF8
FFFFF0
FFFFC0
000000
00F000
00F000
00E000
00E000
00E000
ENDCHAR
STARTCHAR 015F
ENCODING 351
SWIDTH 714 0
DWIDTH 20 0
BBX 18 21 1 -6
BITMAP
7FC000
FFC000
FFC000
F00000
F00000
F00000
FFFF00
FFFF80
7FFFC0
0003C0
0003C0
FFFFC0
FFFFC0
FFFFC0
FFFF00
000000
01E000
01E000
01C000
01C000
01C000
ENDCHAR
STARTCHAR 0160
ENCODING 352
SWIDTH 821 0
DWIDTH 23 0
BBX 21 28 1 0
BITMAP
1E0780
0F0F00
0F1E00
079E00
03FC00
03F800
01F800
00F000
000000
3FE000
7FE000
FFE000
FFE000
F00000
F00000
F00000
FFFFC0
FFFFF0
7FFFF8
3FFFF8
000078
000078
000078
000078
FFFFF8
FFFFF8
FFFFF0
FFFFC0
ENDCHAR
STARTCHAR 0161
ENCODING 353
SWIDTH 714 0
DWIDTH 20 0
BBX 18 24 1 0
BITMAP
3C0F00
1E1E00
1E3C00
0F3C00
07F800
07F000
03F000
01E000
000000
7FC000
FFC000
FFC000
F00000
F00000
F00000
FFFF00
FFFF80
7FFFC0
0003C0
0003C0
FFFFC0
FFFFC0
FFFFC0
FFFF00
ENDCHAR
STARTCHAR 0162
ENCODING 354
SWIDTH 750 0
DWIDTH 21 0
BBX 20 25 1 -6
BITMAP
FFFFF0
FFFFF0
FFFFF0
FFFFF0
00F000
00F000
00F000
00F000
00F000
00F000
00F000
00F000
00F000
00F000
00F000
00F000
00F000
00F000
00F000
000000
00F000
00F000
00E000
00E000
00E000
ENDCHAR
STARTCHAR 0163
ENCODING 355
SWIDTH 428 0
DWIDTH 12 0
BBX 11 25 1 -6
BITMAP
3C00
3C00
3C00
3C00
FFE0
FFE0
FFE0
FFE0
3C00
3C00
3C00
3C00
3C00
3C00
3C00
3C00
3C00
3C00
3C00
0000
7800
7800
7000
7000
7000
ENDCHAR
STARTCHAR 0164
ENCODING 356
SWIDTH 750 0
DWIDTH 21 0
BBX 20 28 1 0
BITMAP
1E0780
0F0F00
0F1E00
079E00
03FC00
03F800
01F800
00F000
000000
FFFFF0
FFFFF0
FFFFF0
FFFFF0
00F000
00F000
00F000
00F000
00F000
00F000
00F000
00F000
00F000
00F000
00F000
00F000
00F000
00F000
00F000
ENDCHAR
STARTCHAR 0165
ENCODING 357
SWIDTH 607 0
DWIDTH 17 0
BBX 16 20 1 0
BITMAP
000F
3C0E
3C0E
3C1E
3C1E
FFFC
FFFC
FFE0
FFE0
3C00
3C00
3C00
3C00
3C00
3C00
3C00
3C00
3C00
3C00
3C00
ENDCHAR
STARTCHAR 0166
ENCODING 358
SWIDTH 750 0
DWIDTH 21 0
BBX 20 19 1 0
BITMAP
FFFFF0
FFFFF0
FFFFF0
FFFFF0
00F000
00F000
00F000
00F000
0FFF00
0FFF00
0FFF00
0FFF00
00F000
00F000
00F000
00F000
00F000
00F000
00F000
ENDCHAR
STARTCHAR 0167
ENCODING 359
SWIDTH 428 0
DWIDTH 12 0
BBX 11 19 1 0
BITMAP
3C00
3C00
3C00
3C00
FFE0
FFE0
FFE0
FFE0
3C00
3C00
3C00
FFC0
FFC0
FFC0
FFC0
3C00
3C00
3C00
3C00
ENDCHAR
STARTCHAR 0168
ENCODING 360
SWIDTH 892 0
DWIDTH 25 0
BBX 21 25 2 0
BITMAP
1FFF80
1FFF80
1FFF80
000000
000000
000000
F00078
F00078
F00078
F00078
F00078
F00078
F00078
F00078
F00078
F00078
F00078
F00078
F00078
F00078
F800F8
FFFFF8
7FFFF0
7FFFF0
1FFFC0
ENDCHAR
STARTCHAR 0169
ENCODING 361
SWIDTH 821 0
DWIDTH 23 0
BBX 19 21 2 0
BITMAP
3FFF00
3FFF00
3FFF00
000000
000000
000000
F001E0
F001E0
F001E0
F001E0
F001E0
F001E0
F001E0
F001E0
F001E0
F001E0
F803E0
FFFFE0
7FFFC0
7FFFC0
1FFF00
ENDCHAR
STARTCHAR 016A
ENCODING 362
SWIDTH 892 0
DWIDTH 25 0
BBX 21 25 2 0
BITMAP
1FFF80
1FFF80
1FFF80
000000
000000
000000
F00078
F00078
F00078
F00078
F00078
F00078
F00078
F00078
F00078
F00078
F00078
F00078
F00078
F00078
F800F8
FFFFF8
7FFFF0
7FFFF0
1FFFC0
ENDCHAR
STARTCHAR 016B
ENCODING 363
SWIDTH 821 0
DWIDTH 23 0
BBX 19 21 2 0
BITMAP
3FFF00
3FFF00
3FFF00
000000
000000
000000
F001E0
F001E0
F001E0
F001E0
F001E0
F001E0
F001E0
F001E0
F001E0
F001E0
F803E0
FFFFE0
7FFFC0
7FFFC0
1FFF00
ENDCHAR
STARTCHAR 016C
ENCODING 364
SWIDTH 892 0
DWIDTH 25 0
BBX 21 28 2 0
BITMAP
070380
070380
070380
070380
07FF80
03FF00
01FE00
000000
000000
F00078
F00078
F00078
F00078
F00078
F00078
F00078
F00078
F00078
F00078
F00078
F00078
F00078
F00078
F800F8
FFFFF8
7FFFF0
7FFFF0
1FFFC0
ENDCHAR
STARTCHAR 016D
ENCODING 365
SWIDTH 821 0
DWIDTH 23 0
BBX 19 24 2 0
BITMAP
0E0700
0E0700
0E0700
0E0700
0FFF00
07FE00
03FC00
000000
000000
F001E0
F001E0
F001E0
F001E0
F001E0
F001E0
F001E0
F001E0
F001E0
F001E0
F803E0
FFFFE0
7FFFC0
7FFFC0
1FFF00
ENDCHAR
STARTCHAR 016E
ENCODING 366
SWIDTH 892 0
DWIDTH 25 0
BBX 21 28 2 0
BITMAP
01FE00
03FF00
038700
038700
038700
038700
03FF00
01FE00
000000
F00078
F00078
F00078
F00078
F00078
F00078
F00078
F00078
F00078
F00078
F00078
F00078
F00078
F00078
F800F8
FFFFF8
7FFFF0
7FFFF0
1FFFC0
ENDCHAR
STARTCHAR 016F
ENCODING 367
SWIDTH 821 0
DWIDTH 23 0
BBX 19 24 2 0
BITMAP
03FC00
07FE00
070E00
070E00
070E00
070E00
07FE00
03FC00
000000
F001E0
F001E0
F001E0
F001E0
F001E0
F001E0
F001E0
F001E0
F001E0
F001E0
F803E0
FFFFE0
7FFFC0
7FFFC0
1FFF00
ENDCHAR
STARTCHAR 0170
ENCODING 368
SWIDTH 892 0
DWIDTH 25 0
BBX 21 27 2 0
BITMAP
01E1E0
03C3C0
03C780
078780
070F00
0E0E00
000000
000000
F00078
F00078
F00078
F00078
F00078
F00078
F00078
F00078
F00078
F00078
F00078
F00078
F00078
F00078
F800F8
FFFFF8
7FFFF0
7FFFF0
1FFFC0
ENDCHAR
STARTCHAR 0171
ENCODING 369
SWIDTH 821 0
DWIDTH 23 0
BBX 19 23 2 0
BITMAP
03C3C0
078780
078F00
0F0F00
0E1E00
1C1C00
000000
000000
F001E0
F001E0
F001E0
F001E0
F001E0
F001E0
F001E0
F001E0
F001E0
F001E0
F803E0
FFFFE0
7FFFC0
7FFFC0
1FFF00
ENDCHAR
STARTCHAR 0172
ENCODING 370
SWIDTH 892 0
DWIDTH 25 0
BBX 21 25 2 -6
BITMAP
F00078
F00078
F00078
F00078
F00078
F00078
F00078
F00078
F00078
F00078
F00078
F00078
F00078
F00078
F800F8
FFFFF8
7FFFF0
7FFFF0
1FFFC0
007000
01E000
01E000
01FF00
01FF00
00FF00
ENDCHAR
STARTCHAR 0173
ENCODING 371
SWIDTH 821 0
DWIDTH 23 0
BBX 19 21 2 -6
BITMAP
F001E0
F001E0
F001E0
F001E0
F001E0
F001E0
F001E0
F001E0
F001E0
F001E0
F803E0
FFFFE0
7FFFC0
7FFFC0
1FFF00
01C000
038000
078000
07FC00
07FC00
03FC00
ENDCHAR
STARTCHAR 0174
ENCODING 372
SWIDTH 1357 0
DWIDTH 38 0
BBX 37 28 0 0
BITMAP
0000780000
0000F80000
0001FC0000
0001FE0000
0003CF0000
00078F0000
0007878000
000F03C000
0000780000
F800F800F8
7C00FC00F0
7C01FC00F0
3C01FE01F0
3E01FE01E0
1E03DF03E0
1F03CF03C0
1F07CF07C0
0F878F8780
0F8F878780
078F07CF00
07DF03CF00
03DE03FF00
03FE01FE00
01FC01FE00
01FC00FC00
01F800FC00
00F800F800
0070007800
ENDCHAR
STARTCHAR 0175
ENCODING 373
SWIDTH 1107 0
DWIDTH 31 0
BBX 31 24 0 0
BITMAP
0003C000
0007C000
000FE000
000FF000
001E7800
003C7800
003C3C00
00781E00
F803803E
7807C03C
7807C03C
3C0FE078
3C0FE078
3E1EF0F0
1E1EF0F0
1F3C71E0
0F3C79E0
0F787BE0
07F83FC0
07F03FC0
03F01F80
03E01F80
03E00F00
01C00600
ENDCHAR
STARTCHAR 0176
ENCODING 374
SWIDTH 964 0
DWIDTH 27 0
BBX 26 28 0 0
BITMAP
000F0000
001F0000
003F8000
003FC000
0079E000
00F1E000
00F0F000
01E07800
00000000
FC000FC0
7E001F80
1F003F00
0F807C00
07E0F800
03F1F000
01FFE000
00FFC000
007F8000
003F0000
001E0000
001E0000
001E0000
001E0000
001E0000
001E0000
001E0000
001E0000
001E0000
ENDCHAR
STARTCHAR 0177
ENCODING 375
SWIDTH 821 0
DWIDTH 23 0
BBX 19 29 2 -5
BITMAP
00F000
01F000
03F800
03FC00
079E00
0F1E00
0F0F00
1E0780
000000
F001E0
F001E0
F001E0
F001E0
F001E0
F001E0
F001E0
F001E0
F001E0
F001E0
FFFFE0
7FFFE0
7FFFE0
1FFFE0
0001E0
0001E0
00FFE0
00FFE0
00FFC0
00FF80
ENDCHAR
STARTCHAR 0178
ENCODING 376
SWIDTH 964 0
DWIDTH 27 0
BBX 26 24 0 0
BITMAP
00F1E000
00F1E000
00F1E000
00F1E000
00000000
FC000FC0
7E001F80
1F003F00
0F807C00
07E0F800
03F1F000
01FFE000
00FFC000
007F8000
003F0000
001E0000
001E0000
001E0000
001E0000
001E0000
001E0000
001E0000
001E0000
001E0000
ENDCHAR
STARTCHAR 0179
ENCODING 377
SWIDTH 857 0
DWIDTH 24 0
BBX 22 27 1 0
BITMAP
000F00
001E00
001E00
003C00
003800
007000
000000
000000
FFFFF0
FFFFF8
FFFFF8
FFFFF0
0003E0
0007C0
000F80
003F00
007E00
00F800
01F000
03E000
0FC000
1F8000
3E0000
7FFFFC
FFFFFC
FFFFFC
FFFFFC
ENDCHAR
STARTCHAR 017A
ENCODING 378
SWIDTH 714 0
DWIDTH 20 0
BBX 18 23 1 0
BITMAP
003C00
007800
007800
00F000
00E000
01C000
000000
000000
FFFF80
FFFF80
FFFF80
001F00
003E00
00FC00
01F000
03E000
07C000
0F8000
1F0000
7E0000
FFFFC0
FFFFC0
FFFFC0
ENDCHAR
STARTCHAR 017B
ENCODING 379
SWIDTH 857 0
DWIDTH 24 0
BBX 22 24 1 0
BITMAP
007800
007800
007800
007800
000000
FFFFF0
FFFFF8
FFFFF8
FFFFF0
0003E0
0007C0
000F80
003F00
007E00
00F800
01F000
03E000
0FC000
1F8000
3E0000
7FFFFC
FFFFFC
FFFFFC
FFFFFC
ENDCHAR
STARTCHAR 017C
ENCODING 380
SWIDTH 714 0
DWIDTH 20 0
BBX 18 20 1 0
BITMAP
01E000
01E000
01E000
01E000
000000
FFFF80
FFFF80
FFFF80
001F00
003E00
00FC00
01F000
03E000
07C000
0F8000
1F0000
7E0000
FFFFC0
FFFFC0
FFFFC0
ENDCHAR
STARTCHAR 017D
ENCODING 381
SWIDTH 857 0
DWIDTH 24 0
BBX 22 28 1 0
BITMAP
0F03C0
078780
078F00
03CF00
01FE00
01FC00
00FC00
007800
000000
FFFFF0
FFFFF8
FFFFF8
FFFFF0
0003E0
0007C0
000F80
003F00
007E00
00F800
01F000
03E000
0FC000
1F8000
3E0000
7FFFFC
FFFFFC
FFFFFC
FFFFFC
ENDCHAR
STARTCHAR 017E
ENCODING 382
SWIDTH 714 0
DWIDTH 20 0
BBX 18 24 1 0
BITMAP
3C0F00
1E1E00
1E3C00
0F3C00
07F800
07F000
03F000
01E000
000000
FFFF80
FFFF80
FFFF80
001F00
003E00
00FC00
01F000
03E000
07C000
0F8000
1F0000
7E0000
FFFFC0
FFFFC0
FFFFC0
ENDCHAR
STARTCHAR 0192
ENCODING 402
SWIDTH 535 0
DWIDTH 15 0
BBX 14 22 1 -3
BITMAP
007C
00FC
01FC
03E0
03C0
0380
0380
3FF8
3FF8
3FF8
0700
0700
0700
0F00
0F00
0E00
0E00
0E00
1E00
FC00
FC00
F000
ENDCHAR
STARTCHAR 0218
ENCODING 536
SWIDTH 821 0
DWIDTH 23 0
BBX 21 25 1 -6
BITMAP
3FE000
7FE000
FFE000
FFE000
F00000
F00000
F00000
FFFFC0
FFFFF0
7FFFF8
3FFFF8
000078
000078
000078
000078
FFFFF8
FFFFF8
FFFFF0
FFFFC0
000000
00F000
00F000
00E000
00E000
00E000
ENDCHAR
STARTCHAR 0219
ENCODING 537
SWIDTH 714 0
DWIDTH 20 0
BBX 18 21 1 -6
BITMAP
7FC000
FFC000
FFC000
F00000
F00000
F00000
FFFF00
FFFF80
7FFFC0
0003C0
0003C0
FFFFC0
FFFFC0
FFFFC0
FFFF00
000000
01E000
01E000
01C000
01C000
01C000
ENDCHAR
STARTCHAR 021A
ENCODING 538
SWIDTH 750 0
DWIDTH 21 0
BBX 20 25 1 -6
BITMAP
FFFFF0
FFFFF0
FFFFF0
FFFFF0
00F000
00F000
00F000
00F000
00F000
00F000
00F000
00F000
00F000
00F000
00F000
00F000
00F000
00F000
00F000
000000
00F000
00F000
00E000
00E000
00E000
ENDCHAR
STARTCHAR 021B
ENCODING 539
SWIDTH 428 0
DWIDTH 12 0
BBX 11 25 1 -6
BITMAP
3C00
3C00
3C00
3C00
FFE0
FFE0
FFE0
FFE0
3C00
3C00
3C00
3C00
3C00
3C00
3C00
3C00
3C00
3C00
3C00
0000
7800
7800
7000
7000
7000
ENDCHAR
STARTCHAR 02C6
ENCODING 710
SWIDTH 642 0
DWIDTH 18 0
BBX 14 8 2 16
BITMAP
0780
0F80
1FC0
1FE0
3CF0
78F0
7878
F03C
ENDCHAR
STARTCHAR 02C7
ENCODING 711
SWIDTH 642 0
DWIDTH 18 0
BBX 14 8 2 16
BITMAP
F03C
7878
78F0
3CF0
1FE0
1FC0
0FC0
0780
ENDCHAR
STARTCHAR 02D8
ENCODING 728
SWIDTH 571 0
DWIDTH 16 0
BBX 12 7 2 17
BITMAP
E070
E070
E070
E070
FFF0
7FE0
3FC0
ENDCHAR
STARTCHAR 02D9
ENCODING 729
SWIDTH 285 0
DWIDTH 8 0
BBX 4 4 2 16
BITMAP
F0
F0
F0
F0
ENDCHAR
STARTCHAR 02DA
ENCODING 730
SWIDTH 500 0
DWIDTH 14 0
BBX 10 8 2 16
BITMAP
7F80
FFC0
E1C0
E1C0
E1C0
E1C0
FFC0
7F80
ENDCHAR
STARTCHAR 02DB
ENCODING 731
SWIDTH 392 0
DWIDTH 11 0
BBX 9 6 1 -6
BITMAP
3C00
F000
F000
FF80
FF80
7F80
ENDCHAR
STARTCHAR 02DC
ENCODING 732
SWIDTH 642 0
DWIDTH 18 0
BBX 14 3 2 18
BITMAP
FFFC
FFFC
FFFC
ENDCHAR
STARTCHAR 02DD
ENCODING 733
SWIDTH 678 0
DWIDTH 19 0
BBX 15 6 2 17
BITMAP
1E1E
3C3C
3C78
7878
70F0
E0E0
ENDCHAR
STARTCHAR 0394
ENCODING 916
SWIDTH 1035 0
DWIDTH 29 0
BBX 27 20 1 0
BITMAP
000E0000
001F0000
003F8000
007FC000
007FC000
00FBE000
00F1F000
01F1F000
03E0F800
03C0F800
07C07C00
0F803E00
0F803E00
1F001F00
1E000F00
3E000F80
7FFFFFC0
7FFFFFC0
FFFFFFE0
FFFFFFE0
ENDCHAR
STARTCHAR 039B
ENCODING 923
SWIDTH 1035 0
DWIDTH 29 0
BBX 28 20 0 0
BITMAP
000F0000
001F8000
001FC000
003FE000
003FE000
007DF000
00F9F000
00F8F800
01F0FC00
01F07C00
03E03E00
07C03E00
07C01F00
0F801F80
0F800F80
1F0007C0
3E0007C0
3E0003E0
7C0003F0
FC0001F0
ENDCHAR
STARTCHAR 03A9
ENCODING 937
SWIDTH 892 0
DWIDTH 25 0
BBX 21 19 2 0
BITMAP
1FFFC0
7FFFF0
FFFFF8
FFFFF8
F800F8
F00078
F00078
F00078
F00078
F00078
F00078
700070
3800E0
3C01C0
1C01C0
FE03F8
FE03F8
FE03F8
FE03F8
ENDCHAR
STARTCHAR 03BC
ENCODING 956
SWIDTH 821 0
DWIDTH 23 0
BBX 19 20 2 -5
BITMAP
F001E0
F001E0
F001E0
F001E0
F001E0
F001E0
F001E0
F001E0
F001E0
F001E0
F003E0
FFFFE0
FFFFC0
FFFFC0
FFFF00
F00000
F00000
F00000
F00000
F00000
ENDCHAR
STARTCHAR 03C0
ENCODING 960
SWIDTH 821 0
DWIDTH 23 0
BBX 19 15 2 0
BITMAP
FFFFE0
FFFFE0
FFFFE0
FFFFE0
F001E0
F001E0
F001E0
F001E0
F001E0
F001E0
F001E0
F001E0
F001E0
F001E0
F001E0
ENDCHAR
STARTCHAR 1E80
ENCODING 7808
SWIDTH 1357 0
DWIDTH 38 0
BBX 37 27 0 0
BITMAP
0003C00000
0001E00000
0000E00000
0000F00000
0000780000
0000380000
0000000000
0000780000
F800F800F8
7C00FC00F0
7C01FC00F0
3C01FE01F0
3E01FE01E0
1E03DF03E0
1F03CF03C0
1F07CF07C0
0F878F8780
0F8F878780
078F07CF00
07DF03CF00
03DE03FF00
03FE01FE00
01FC01FE00
01FC00FC00
01F800FC00
00F800F800
0070007800
ENDCHAR
STARTCHAR 1E81
ENCODING 7809
SWIDTH 1107 0
DWIDTH 31 0
BBX 31 23 0 0
BITMAP
003C0000
001E0000
000E0000
000F0000
00078000
00038000
00000000
F803803E
7807C03C
7807C03C
3C0FE078
3C0FE078
3E1EF0F0
1E1EF0F0
1F3C71E0
0F3C79E0
0F787BE0
07F83FC0
07F03FC0
03F01F80
03E01F80
03E00F00
01C00600
ENDCHAR
STARTCHAR 1E82
ENCODING 7810
SWIDTH 1357 0
DWIDTH 38 0
BBX 37 27 0 0
BITMAP
00000F0000
00001E0000
00001E0000
00003C0000
0000380000
0000700000
0000000000
0000780000
F800F800F8
7C00FC00F0
7C01FC00F0
3C01FE01F0
3E01FE01E0
1E03DF03E0
1F03CF03C0
1F07CF07C0
0F878F8780
0F8F878780
078F07CF00
07DF03CF00
03DE03FF00
03FE01FE00
01FC01FE00
01FC00FC00
01F800FC00
00F800F800
0070007800
ENDCHAR
STARTCHAR 1E83
ENCODING 7811
SWIDTH 1107 0
DWIDTH 31 0
BBX 31 23 0 0
BITMAP
0000F000
0001E000
0001E000
0003C000
00038000
00070000
00000000
F803803E
7807C03C
7807C03C
3C0FE078
3C0FE078
3E1EF0F0
1E1EF0F0
1F3C71E0
0F3C79E0
0F787BE0
07F83FC0
07F03FC0
03F01F80
03E01F80
03E00F00
01C00600
ENDCHAR
STARTCHAR 1E84
ENCODING 7812
SWIDTH 1357 0
DWIDTH 38 0
BBX 37 24 0 0
BITMAP
0003C78000
0003C78000
0003C78000
0003C78000
0000780000
F800F800F8
7C00FC00F0
7C01FC00F0
3C01FE01F0
3E01FE01E0
1E03DF03E0
1F03CF03C0
1F07CF07C0
0F878F8780
0F8F878780
078F07CF00
07DF03CF00
03DE03FF00
03FE01FE00
01FC01FE00
01FC00FC00
01F800FC00
00F800F800
0070007800
ENDCHAR
STARTCHAR 1E85
ENCODING 7813
SWIDTH 1107 0
DWIDTH 31 0
BBX 31 20 0 0
BITMAP
003C7800
003C7800
003C7800
003C7800
F803803E
7807C03C
7807C03C
3C0FE078
3C0FE078
3E1EF0F0
1E1EF0F0
1F3C71E0
0F3C79E0
0F787BE0
07F83FC0
07F03FC0
03F01F80
03E01F80
03E00F00
01C00600
ENDCHAR
STARTCHAR 1EF2
ENCODING 7922
SWIDTH 964 0
DWIDTH 27 0
BBX 26 27 0 0
BITMAP
00F00000
00780000
00380000
003C0000
001E0000
000E0000
00000000
00000000
FC000FC0
7E001F80
1F003F00
0F807C00
07E0F800
03F1F000
01FFE000
00FFC000
007F8000
003F0000
001E0000
001E0000
001E0000
001E0000
001E0000
001E0000
001E0000
001E0000
001E0000
ENDCHAR
STARTCHAR 1EF3
ENCODING 7923
SWIDTH 821 0
DWIDTH 23 0
BBX 19 28 2 -5
BITMAP
078000
03C000
01C000
01E000
00F000
007000
000000
000000
F001E0
F001E0
F001E0
F001E0
F001E0
F001E0
F001E0
F001E0
F001E0
F001E0
FFFFE0
7FFFE0
7FFFE0
1FFFE0
0001E0
0001E0
00FFE0
00FFE0
00FFC0
00FF80
ENDCHAR
STARTCHAR 2013
ENCODING 8211
SWIDTH 714 0
DWIDTH 20 0
BBX 18 4 1 7
BITMAP
FFFFC0
FFFFC0
FFFFC0
FFFFC0
ENDCHAR
STARTCHAR 2014
ENCODING 8212
SWIDTH 964 0
DWIDTH 27 0
BBX 25 4 1 7
BITMAP
FFFFFF80
FFFFFF80
FFFFFF80
FFFFFF80
ENDCHAR
STARTCHAR 2018
ENCODING 8216
SWIDTH 214 0
DWIDTH 6 0
BBX 5 7 1 13
BITMAP
F0
F0
70
70
70
78
38
ENDCHAR
STARTCHAR 2019
ENCODING 8217
SWIDTH 214 0
DWIDTH 6 0
BBX 5 7 1 13
BITMAP
78
70
70
F0
F0
E0
E0
ENDCHAR
STARTCHAR 201A
ENCODING 8218
SWIDTH 214 0
DWIDTH 6 0
BBX 5 7 1 -2
BITMAP
78
70
70
F0
F0
E0
E0
ENDCHAR
STARTCHAR 201C
ENCODING 8220
SWIDTH 464 0
DWIDTH 13 0
BBX 11 7 1 13
BITMAP
F3C0
F3C0
71C0
71C0
71C0
79E0
38E0
ENDCHAR
STARTCHAR 201D
ENCODING 8221
SWIDTH 464 0
DWIDTH 13 0
BBX 11 7 1 13
BITMAP
79E0
71C0
71C0
F3C0
F3C0
E380
E380
ENDCHAR
STARTCHAR 201E
ENCODING 8222
SWIDTH 464 0
DWIDTH 13 0
BBX 11 7 1 -2
BITMAP
79E0
71C0
71C0
F3C0
F3C0
E380
E380
ENDCHAR
STARTCHAR 2020
ENCODING 8224
SWIDTH 428 0
DWIDTH 12 0
BBX 11 19 1 0
BITMAP
0E00
0E00
0E00
0E00
FFE0
FFE0
FFE0
0E00
0E00
0E00
0E00
0E00
0E00
0E00
0E00
0E00
0E00
0E00
0E00
ENDCHAR
STARTCHAR 2021
ENCODING 8225
SWIDTH 428 0
DWIDTH 12 0
BBX 11 19 1 0
BITMAP
0E00
0E00
0E00
0E00
FFE0
FFE0
FFE0
0E00
0E00
0E00
0E00
0E00
FFE0
FFE0
FFE0
0E00
0E00
0E00
0E00
ENDCHAR
STARTCHAR 2022
ENCODING 8226
SWIDTH 392 0
DWIDTH 11 0
BBX 7 9 2 5
BITMAP
7C
FE
FE
FE
FE
FE
FE
FE
7C
ENDCHAR
STARTCHAR 2026
ENCODING 8230
SWIDTH 1357 0
DWIDTH 38 0
BBX 34 4 2 0
BITMAP
F001E003C0
F001E003C0
F001E003C0
F001E003C0
ENDCHAR
STARTCHAR 2030
ENCODING 8240
SWIDTH 1428 0
DWIDTH 40 0
BBX 39 21 1 -1
BITMAP
7FE0000000
FFF0380000
FFF0780000
E070700000
E070E00000
E071E00000
E071C00000
E073800000
FFF7000000
FFFF000000
7FEFFF8FFC
001FFFDFFE
003FFFDFFE
003B81DC0E
007381DC0E
00F381DC0E
00E381DC0E
01C381DC0E
0383FFDFFE
0783FFDFFE
0001FF8FFC
ENDCHAR
STARTCHAR 2039
ENCODING 8249
SWIDTH 285 0
DWIDTH 8 0
BBX 6 12 1 3
BITMAP
04
0C
1C
3C
F8
F0
E0
F0
F8
3C
1C
0C
ENDCHAR
STARTCHAR 203A
ENCODING 8250
SWIDTH 285 0
DWIDTH 8 0
BBX 6 11 1 4
BITMAP
C0
E0
F0
F8
3C
1C
3C
78
F0
E0
C0
ENDCHAR
STARTCHAR 2044
ENCODING 8260
SWIDTH 321 0
DWIDTH 9 0
BBX 16 19 -4 0
BITMAP
0007
000F
000E
001C
003C
0038
0070
00E0
00E0
01C0
0380
0780
0700
0E00
1E00
1C00
3800
7000
F000
ENDCHAR
STARTCHAR 2070
ENCODING 8304
SWIDTH 500 0
DWIDTH 14 0
BBX 12 11 1 9
BITMAP
7FE0
FFF0
FFF0
E070
E070
E070
E070
E070
FFF0
FFF0
7FE0
ENDCHAR
STARTCHAR 2074
ENCODING 8308
SWIDTH 500 0
DWIDTH 14 0
BBX 12 9 1 10
BITMAP
E070
E070
E070
E070
FFF0
FFF0
FFF0
0070
0070
ENDCHAR
STARTCHAR 2075
ENCODING 8309
SWIDTH 500 0
DWIDTH 14 0
BBX 12 11 1 9
BITMAP
FE00
FE00
FE00
E000
FFE0
FFF0
FFF0
0030
FFF0
FFF0
FFE0
ENDCHAR
STARTCHAR 2076
ENCODING 8310
SWIDTH 500 0
DWIDTH 14 0
BBX 12 11 1 9
BITMAP
7E00
FE00
FE00
E000
FFE0
FFF0
E030
E030
FFF0
FFF0
7FE0
ENDCHAR
STARTCHAR 2077
ENCODING 8311
SWIDTH 500 0
DWIDTH 14 0
BBX 12 10 1 10
BITMAP
FFE0
FFF0
FFE0
00C0
01C0
0380
0700
0E00
1C00
3C00
ENDCHAR
STARTCHAR 2078
ENCODING 8312
SWIDTH 500 0
DWIDTH 14 0
BBX 12 11 1 9
BITMAP
7FE0
FFF0
FFF0
E070
FFF0
FFF0
E070
E070
FFF0
FFF0
7FE0
ENDCHAR
STARTCHAR 2079
ENCODING 8313
SWIDTH 500 0
DWIDTH 14 0
BBX 12 11 1 9
BITMAP
7FE0
FFF0
FFF0
C070
C070
FFF0
7FF0
0070
07F0
07F0
07E0
ENDCHAR
STARTCHAR 2080
ENCODING 8320
SWIDTH 500 0
DWIDTH 14 0
BBX 12 11 1 -1
BITMAP
7FE0
FFF0
FFF0
E070
E070
E070
E070
E070
FFF0
FFF0
7FE0
ENDCHAR
STARTCHAR 2081
ENCODING 8321
SWIDTH 178 0
DWIDTH 5 0
BBX 3 9 1 0
BITMAP
E0
E0
E0
E0
E0
E0
E0
E0
E0
ENDCHAR
STARTCHAR 2082
ENCODING 8322
SWIDTH 500 0
DWIDTH 14 0
BBX 12 11 1 -1
BITMAP
07E0
07E0
07F0
7FF0
FFF0
FFE0
E000
C000
FFF0
FFF0
FFF0
ENDCHAR
STARTCHAR 2083
ENCODING 8323
SWIDTH 500 0
DWIDTH 14 0
BBX 12 11 1 -1
BITMAP
07E0
07F0
07F0
0070
FFF0
FFF0
0070
0070
FFF0
FFF0
FFE0
ENDCHAR
STARTCHAR 2084
ENCODING 8324
SWIDTH 500 0
DWIDTH 14 0
BBX 12 9 1 0
BITMAP
E070
E070
E070
E070
FFF0
FFF0
FFF0
0070
0070
ENDCHAR
STARTCHAR 2085
ENCODING 8325
SWIDTH 500 0
DWIDTH 14 0
BBX 12 11 1 -1
BITMAP
FE00
FE00
FE00
E000
FFE0
FFF0
FFF0
0030
FFF0
FFF0
FFE0
ENDCHAR
STARTCHAR 2086
ENCODING 8326
SWIDTH 500 0
DWIDTH 14 0
BBX 12 11 1 -1
BITMAP
7E00
FE00
FE00
E000
FFE0
FFF0
E030
E030
FFF0
FFF0
7FE0
ENDCHAR
STARTCHAR 2087
ENCODING 8327
SWIDTH 500 0
DWIDTH 14 0
BBX 12 10 1 0
BITMAP
FFE0
FFF0
FFE0
00C0
01C0
0380
0700
0E00
1C00
3C00
ENDCHAR
STARTCHAR 2088
ENCODING 8328
SWIDTH 500 0
DWIDTH 14 0
BBX 12 11 1 -1
BITMAP
7FE0
FFF0
FFF0
E070
FFF0
FFF0
E070
E070
FFF0
FFF0
7FE0
ENDCHAR
STARTCHAR 2089
ENCODING 8329
SWIDTH 500 0
DWIDTH 14 0
BBX 12 11 1 -1
BITMAP
7FE0
FFF0
FFF0
C070
C070
FFF0
7FF0
0070
07F0
07F0
07E0
ENDCHAR
STARTCHAR 20AC
ENCODING 8364
SWIDTH 821 0
DWIDTH 23 0
BBX 22 19 0 0
BITMAP
03FFFC
0FFFFC
0FFFF8
1FFFF8
1F0000
1E0000
7FFFF0
7FFFE0
FFFFE0
1E0000
7FFFC0
7FFFC0
FFFF80
1E0000
1F0000
1FFFFC
0FFFFC
0FFFFC
03FFFC
ENDCHAR
STARTCHAR 2117
ENCODING 8471
SWIDTH 928 0
DWIDTH 26 0
BBX 24 19 0 0
BITMAP
0FFFF0
3FFFFC
7FFFFE
F8001F
F0000F
E1FF87
E1FFC7
E180C7
E180C7
E1FFC7
E1FF87
E18007
E18007
E18007
E0000F
F8001F
7FFFFE
3FFFFC
0FFFF0
ENDCHAR
STARTCHAR 2122
ENCODING 8482
SWIDTH 1250 0
DWIDTH 35 0
BBX 32 13 1 6
BITMAP
FFF70007
FFF7800F
FFF7800F
0E07C01F
0E07E03F
0E077077
0E0738E7
0E0738E7
0E071DC7
0E070F87
0E070707
0E070707
0E000000
ENDCHAR
STARTCHAR 2153
ENCODING 8531
SWIDTH 857 0
DWIDTH 24 0
BBX 22 20 1 -1
BITMAP
380700
380F00
380E00
381C00
383C00
383800
387000
38E000
39E000
01C1F8
0381FC
0781FC
07001C
0E3FFC
1E3FFC
1C001C
38001C
703FFC
F03FFC
003FF8
ENDCHAR
STARTCHAR 2154
ENCODING 8532
SWIDTH 1071 0
DWIDTH 30 0
BBX 28 21 1 -1
BITMAP
07E00000
07E01C00
07F03C00
7FF03800
FFF07000
FFE0F000
E000E000
C001C000
FFF38000
FFF78000
FFF707E0
000E07F0
001E07F0
001C0070
0038FFF0
0078FFF0
00700070
00E00070
01C0FFF0
03C0FFF0
0000FFE0
ENDCHAR
STARTCHAR 215B
ENCODING 8539
SWIDTH 892 0
DWIDTH 25 0
BBX 23 20 1 -1
BITMAP
380700
380F00
380E00
381C00
383C00
383800
387000
38E000
39E000
01CFFC
039FFE
079FFE
071C0E
0E1FFE
1E1FFE
1C1C0E
381C0E
701FFE
F01FFE
000FFC
ENDCHAR
STARTCHAR 215C
ENCODING 8540
SWIDTH 1071 0
DWIDTH 30 0
BBX 28 21 1 -1
BITMAP
07E00000
07F01C00
07F03C00
00703800
FFF07000
FFF0F000
0070E000
0071C000
FFF38000
FFF78000
FFE77FE0
000EFFF0
001EFFF0
001CE070
0038FFF0
0078FFF0
0070E070
00E0E070
01C0FFF0
03C0FFF0
00007FE0
ENDCHAR
STARTCHAR 215D
ENCODING 8541
SWIDTH 1071 0
DWIDTH 30 0
BBX 28 21 1 -1
BITMAP
FE000000
FE001C00
FE003C00
E0003800
FFE07000
FFF0F000
FFF0E000
0031C000
FFF38000
FFF78000
FFE77FE0
000EFFF0
001EFFF0
001CE070
0038FFF0
0078FFF0
0070E070
00E0E070
01C0FFF0
03C0FFF0
00007FE0
ENDCHAR
STARTCHAR 215E
ENCODING 8542
SWIDTH 964 0
DWIDTH 27 0
BBX 24 21 2 -1
BITMAP
FFE000
FFF380
FFE780
00C700
01CE00
039E00
071C00
0E3800
1C7000
3CF000
00E7FE
01CFFF
03CFFF
038E07
070FFF
0F0FFF
0E0E07
1C0E07
380FFF
780FFF
0007FE
ENDCHAR
STARTCHAR 2202
ENCODING 8706
SWIDTH 678 0
DWIDTH 19 0
BBX 17 21 1 -1
BITMAP
03F000
03FC00
03FE00
001F00
000F00
000780
000380
0FC380
3FF380
7FFB80
7C1F80
F80F80
F00780
F00300
F00300
F00700
F80E00
7C1E00
7FFC00
3FF800
0FE000
ENDCHAR
STARTCHAR 220F
ENCODING 8719
SWIDTH 642 0
DWIDTH 18 0
BBX 14 26 2 -6
BITMAP
FFFC
FFFC
FFFC
F03C
F03C
F03C
F03C
F03C
F03C
F03C
F03C
F03C
F03C
F03C
F03C
F03C
F03C
F03C
F03C
F03C
F03C
F03C
F03C
F03C
F03C
F03C
ENDCHAR
STARTCHAR 2211
ENCODING 8721
SWIDTH 642 0
DWIDTH 18 0
BBX 16 26 1 -6
BITMAP
FFFF
FFFF
FFFF
7FFF
3800
3C00
1E00
0F00
0700
0780
03C0
01E0
01E0
01E0
01E0
03C0
0780
0700
0F00
1E00
3C00
3800
7FFF
FFFF
FFFF
FFFF
ENDCHAR
STARTCHAR 2212
ENCODING 8722
SWIDTH 607 0
DWIDTH 17 0
BBX 13 3 2 8
BITMAP
FFF8
FFF8
FFF8
ENDCHAR
STARTCHAR 221A
ENCODING 8730
SWIDTH 571 0
DWIDTH 16 0
BBX 15 19 1 0
BITMAP
000E
001C
001C
001C
0038
0038
0038
0070
0070
F870
F8F0
38E0
1CE0
1CE0
1DC0
0FC0
0FC0
0F80
0780
ENDCHAR
STARTCHAR 221E
ENCODING 8734
SWIDTH 785 0
DWIDTH 22 0
BBX 20 13 1 3
BITMAP
1F0F80
3F9FC0
7FFFE0
F0F0F0
E06070
E06070
E06070
E06070
E06070
F0F0F0
7FFFE0
3F9FC0
1F0780
ENDCHAR
STARTCHAR 222B
ENCODING 8747
SWIDTH 392 0
DWIDTH 11 0
BBX 11 31 0 -7
BITMAP
01E0
07E0
07E0
0F00
0E00
0E00
0E00
0E00
0E00
0E00
0E00
0E00
0E00
0E00
0E00
0E00
0E00
0E00
0E00
0E00
0E00
0E00
0E00
0E00
0E00
0E00
0E00
1E00
FC00
FC00
F000
ENDCHAR
STARTCHAR 2248
ENCODING 8776
SWIDTH 607 0
DWIDTH 17 0
BBX 13 10 2 5
BITMAP
7800
FF38
EFF8
01E0
0000
0000
7800
FF38
EFF8
01E0
ENDCHAR
STARTCHAR 2260
ENCODING 8800
SWIDTH 607 0
DWIDTH 17 0
BBX 16 19 0 0
BITMAP
0007
000E
001E
001C
3FFE
3FFE
3FFE
00E0
01E0
03C0
0380
3FFE
3FFE
3FFE
1C00
3C00
3800
7000
F000
ENDCHAR
STARTCHAR 2264
ENCODING 8804
SWIDTH 607 0
DWIDTH 17 0
BBX 13 21 2 -3
BITMAP
0008
0038
00F8
01F0
07C0
1F80
7E00
F800
E000
F800
7E00
1F80
07E0
01F0
00F8
0038
0008
0000
FFF8
FFF8
FFF8
ENDCHAR
STARTCHAR 2265
ENCODING 8805
SWIDTH 607 0
DWIDTH 17 0
BBX 13 21 2 -3
BITMAP
8000
C000
F000
FC00
3F00
0FC0
03E0
00F8
0078
01F8
03E0
0FC0
3F00
FC00
F000
C000
8000
0000
FFF8
FFF8
FFF8
ENDCHAR
STARTCHAR 25CA
ENCODING 9674
SWIDTH 571 0
DWIDTH 16 0
BBX 12 20 2 0
BITMAP
0600
0F00
1F00
1F80
3B80
39C0
71C0
70E0
E0E0
E070
E070
E0E0
70E0
71C0
39C0
3B80
1F80
1F00
0F00
0600
ENDCHAR
STARTCHAR FB01
ENCODING 64257
SWIDTH 714 0
DWIDTH 20 0
BBX 16 20 2 0
BITMAP
3FCF
7FCF
FFCF
F00F
F000
FFCF
FFCF
FFCF
FFCF
F00F
F00F
F00F
F00F
F00F
F00F
F00F
F00F
F00F
F00F
F00F
ENDCHAR
STARTCHAR FB02
ENCODING 64258
SWIDTH 714 0
DWIDTH 20 0
BBX 16 20 2 0
BITMAP
3FCF
7FCF
FFCF
F00F
F00F
FFCF
FFCF
FFCF
FFCF
F00F
F00F
F00F
F00F
F00F
F00F
F00F
F00F
F00F
F00F
F00F
ENDCHAR
ENDFONT
